<svg id="a3a98b96-3a97-4761-b488-13caa7f60b1a" data-name="Capa 1" xmlns="http://www.w3.org/2000/svg" viewBox="0 0 1080 1080"><defs><style>.a2ea49ef-9eb7-4f10-860f-3b506682b9a6,.b613b083-859a-4979-a641-618fdd07c311{fill:#fff;}.ba63010e-e196-4583-8bcc-98a5dda6cfbf{fill:#272822;}.a14d77e6-83f7-4b69-bdc1-f63601c0ad25,.f42f2061-6cb7-43c0-a57e-dd564721ff82{fill:#00dafe;}.a2ea49ef-9eb7-4f10-860f-3b506682b9a6,.a573ef61-58d3-40c4-bc44-7c258d55d7bb,.b1baf652-49c8-4832-9bb1-82707d63bf58,.b20d6a52-8f25-400c-9b55-8e633fb0b5fa,.f42f2061-6cb7-43c0-a57e-dd564721ff82{font-size:16px;font-family:Roboto-Regular, Roboto;}.f8a69849-33a6-41c2-a74e-bcf941c3e802{letter-spacing:-0.02em;}.bbff161c-3d34-4a45-9d53-b98727d04156{letter-spacing:-0.01em;}.bd91452d-1eb2-40ce-8c39-2c1f2e15ad6b{letter-spacing:-0.01em;}.f0b8f12a-2b7c-4eb2-93c2-ff138e826605{letter-spacing:0.01em;}.fd600192-7656-426f-aeaa-e9432e381e31{letter-spacing:-0.01em;}.addede0a-1068-4958-81b6-117ad53acdd5{letter-spacing:-0.07em;}.b1baf652-49c8-4832-9bb1-82707d63bf58,.e4ae1ed1-9cfd-46b1-9c54-8444cd7d6699{fill:#f92672;}.e97be040-21fe-4e9f-b4f8-038b909e39cb{letter-spacing:0.02em;}.a573ef61-58d3-40c4-bc44-7c258d55d7bb{fill:#fc971e;}.a1bdcfc6-f24a-496b-827e-145123adbb52,.a7a6609b-467b-46ef-9e69-67d395551b74,.b3315d06-9255-4006-8f2c-09e2a9cc6553,.bbd7a44a-8eed-44f8-a34b-46eebc23635b{fill:none;stroke-miterlimit:10;}.b3315d06-9255-4006-8f2c-09e2a9cc6553,.bbd7a44a-8eed-44f8-a34b-46eebc23635b{stroke:#00dafe;stroke-linecap:round;}.bbd7a44a-8eed-44f8-a34b-46eebc23635b{stroke-width:2px;}.b4e872fd-b4a7-435e-95a3-d0eb1bd8063b{letter-spacing:-0.06em;}.f6aaa7ab-ea77-4519-8f8f-d9036f610cca{fill:#d8ce6e;}.a67e0272-51a3-4fa0-90b9-812e63f1255c{fill:#dddddc;}.f0b22221-c442-4fc0-98b7-c36fa97c6cd9{fill:#6fddb8;}.af90ff16-d248-421f-a222-22c4d0db532e{fill:#f2266f;}.b8672db3-7549-4996-94c4-7842511d5a61{fill:#d4ca6c;}.ea44b806-e531-43c2-824d-8ababcf19e25{fill:#dcd270;}.fdc59661-d6a9-4881-a14f-bc9d7a5b8399{fill:#e12669;}.f9405a28-8a6f-4dba-a6cb-df6f96bd76d6{fill:#e6266b;}.e9838760-bf41-472a-b66a-01286c3a75f8{fill:#e4e4e4;}.ade0c04e-f92c-441f-949c-807252b7d9a0{fill:#e9266c;}.e400e380-e443-44a8-9c9a-d7d4d6cba977{fill:#9ed62d;}.afe2c440-e566-46ff-ab0d-8acb16719b7e{fill:#a6e22e;}.a1bdcfc6-f24a-496b-827e-145123adbb52,.a7a6609b-467b-46ef-9e69-67d395551b74{stroke:#464742;}.a7a6609b-467b-46ef-9e69-67d395551b74{stroke-dasharray:11.95 11.95;}.fb1f4f13-962a-4e0e-99d7-41cd0dfddf76{fill:#9dd52d;}.aeeff375-3b07-4f8f-9968-7d89d6071b94{fill:#dfdfdf;}.a9a83746-76f5-400a-b950-9dea47a7136e{fill:#ea266c;}.a160de7e-5e71-464a-9776-1ddaf7966dfc{fill:#eb8e1f;}.a341b009-692f-4035-8976-81a83ff97da5{fill:#d9cf6e;}.bc64c3d6-ea58-4d26-9165-7eaa3ad929e6{fill:#e6e6e5;}.ed72b6b1-ed28-42a5-9dc4-47786d1f1e89{fill:#61cbdf;}.e62c3828-298d-4201-9d54-b7357e51cf09{fill:#f0cb02;}.fc3fe0ff-54f9-4b75-9ee7-92a3c86e4a09{fill:#cfc66a;}.ab97c43e-2acc-40aa-8b40-7f15d88bfcef{fill:#81c3ec;}.a99de7d1-0dbb-4d0e-bf3e-6c7a262c2eb4{fill:#c568c1;}.e97f37fd-93e9-49da-a9ac-1041bb354074{fill:#fefefe;}</style></defs><title>reactjs1</title><rect class="b613b083-859a-4979-a641-618fdd07c311" width="1080" height="1080"/><rect class="ba63010e-e196-4583-8bcc-98a5dda6cfbf" x="9" y="890.93" width="1061" height="179.07" rx="20"/><rect class="ba63010e-e196-4583-8bcc-98a5dda6cfbf" x="9" y="559" width="1061" height="323.31" rx="20"/><path class="a14d77e6-83f7-4b69-bdc1-f63601c0ad25" d="M405.39,28.4c1.07.5,2.25.7,3.31,1.26a12.84,12.84,0,0,1,5.52,6.3,28.53,28.53,0,0,1,2.18,9.38,54.42,54.42,0,0,1-.24,10.6A71.66,71.66,0,0,1,414.59,65c-.18.79.35.71.64.78a64.16,64.16,0,0,1,8.22,2.91c5.91,2.45,11.4,5.59,15.66,10.48a12.66,12.66,0,0,1,3.46,9.54,13.11,13.11,0,0,1-3,7.21c-4.39,5.46-10.24,8.81-16.6,11.45a69.21,69.21,0,0,1-7.23,2.6,1,1,0,0,0-.76,1.39,65.92,65.92,0,0,1,1.67,10.74c.56,6.1.21,12.11-2.29,17.73-2,4.46-5.32,7.51-10.62,7.55-.25,0-.57-.13-.72.23h-.48c-.08-.24-.28-.23-.48-.23-3.69,0-7-1.22-10.28-2.78a61.72,61.72,0,0,1-15.16-10.89c-.63-.59-.94-.71-1.57,0a25.25,25.25,0,0,1-3,2.81,73.49,73.49,0,0,1-9.69,6.69c-4.52,2.48-9.17,4.24-14.41,4.22-5,0-8.38-2.47-10.67-6.62a23,23,0,0,1-2.49-9.16,55.89,55.89,0,0,1,.1-11.35,58.06,58.06,0,0,1,1.7-9c.15-.56,0-.69-.44-.82a60.37,60.37,0,0,1-18.8-8.85A21.83,21.83,0,0,1,309.82,93a33.88,33.88,0,0,1-1.29-4V86.59c.08-.08.21-.16.22-.24A14.64,14.64,0,0,1,313,78a35.67,35.67,0,0,1,10.37-7.34,66,66,0,0,1,12.34-4.81c.49-.13,1.15-.15.9-1.11a61.28,61.28,0,0,1-2.09-17.42,30.82,30.82,0,0,1,1.69-10,13.31,13.31,0,0,1,6.84-7.94c1.16-.55,2.46-.52,3.64-1h2.86c.08.24.29.22.48.23a23.53,23.53,0,0,1,8.39,2.31A60,60,0,0,1,375,42.49c.41.4.63.51,1.13.06a83.77,83.77,0,0,1,7.38-6.2,54.61,54.61,0,0,1,10.05-5.88,68.08,68.08,0,0,1,6.6-2.07ZM355.51,67.73c-3.75.15-7.37,1.15-11.06,1.73-.65.1-.48.57-.35.94.63,1.86,1.26,3.73,1.95,5.58.61,1.65,1.31,3.27,2.05,5.12,2.45-4.64,4.95-9,7.59-13.2l.24-.31C355.73,67.46,355.6,67.53,355.51,67.73Zm40.11,0c-.08-.2-.22-.26-.41-.14l.23.31c2.7,4.29,5.2,8.7,7.71,13.36a3,3,0,0,1,.12-.72c1.44-3.19,2.54-6.5,3.75-9.78.38-1-.09-1.21-.9-1.35-1.08-.18-2.13-.47-3.2-.62A56.31,56.31,0,0,0,395.62,67.73Zm-12.44,47.46H367.89c2.31,3.13,4.73,5.88,7.11,8.67.67.77,1.1.61,1.64-.06,2.28-2.79,4.65-5.49,6.72-8.44l.24-.31C383.4,114.92,383.27,115,383.18,115.19Zm-7.07-5.71c2.86.25,6.54-.23,10.22-.24a2.37,2.37,0,0,0,2.15-1.22,171.32,171.32,0,0,0,11-19.24,1.62,1.62,0,0,0,0-1.72c-1-1.81-1.88-3.68-2.86-5.5q-3.92-7.26-8.49-14.09a1.47,1.47,0,0,0-1-.7,57.65,57.65,0,0,0-7.19-.39,115.1,115.1,0,0,0-14,.22c-1.2.08-2.54-.1-3.46,1.38-3.93,6.23-7.67,12.56-11,19.14a1.59,1.59,0,0,0,0,1.62Q353.7,92.93,356,97q3.38,6,7.24,11.7c.19.28.32.58.79.55a52.45,52.45,0,0,1,5.32.2C371.31,109.56,373.3,109.48,376.11,109.48ZM314.23,88.19a4.3,4.3,0,0,0,.56,1.87c1.59,3.55,4.53,5.85,7.6,8a54.68,54.68,0,0,0,14.7,6.72c1,.32,1.24,0,1.51-.83A128.47,128.47,0,0,1,343.89,90c.44-1,1.09-1.92.45-3.24a93.9,93.9,0,0,1-5.77-15c-.13-.48-.31-.7-1-.51-2.21.64-4.38,1.35-6.51,2.19-5.23,2.07-10.15,4.67-14.06,8.82A8.68,8.68,0,0,0,314.23,88.19ZM371.65,129c-.62-1.41-1.85-2.27-2.79-3.38-2.77-3.27-5.51-6.58-7.95-10.12a1.91,1.91,0,0,0-1.53-1c-1.65,0-3.27-.33-4.91-.47a93.59,93.59,0,0,1-11.18-1.79c-1-.21-1.2.14-1.34.82a66.14,66.14,0,0,0-1.72,15.36,24.23,24.23,0,0,0,1.5,8.24c.72,1.81,1.58,3.6,3.57,4.44a10.17,10.17,0,0,0,6.45.19,33.41,33.41,0,0,0,9.36-4.1A66.68,66.68,0,0,0,371.65,129Zm39.47-2.78c0-1.26-.13-2.52-.2-3.77a77.22,77.22,0,0,0-1.5-9.83c-.09-.49-.34-.89-1-.73a105.53,105.53,0,0,1-16.86,2.6.85.85,0,0,0-.75.44c-.39.63-.8,1.24-1.25,1.83-2.31,3.1-4.58,6.24-7.16,9.13-.78.87-1.49,1.81-2.26,2.7-.24.28-.15.3.09.55a53.17,53.17,0,0,0,11.28,8.77c3.27,1.87,6.63,3.62,10.57,3.8,3.19.15,5.25-.9,6.68-3.77A26.27,26.27,0,0,0,411.12,126.22Zm-70.85-77c0,1,.06,2.46.18,3.92a89.05,89.05,0,0,0,1.65,10c.2,1,.69.86,1.22.74a113.42,113.42,0,0,1,15.35-2.39,2.36,2.36,0,0,0,2.09-1,40.3,40.3,0,0,1,2.41-3.3,88.26,88.26,0,0,1,7.61-9.09c.87-.88.62-1.31-.14-1.91-2.12-1.67-4.07-3.55-6.29-5.09-4.53-3.13-9.14-6-14.77-6.85a6.6,6.6,0,0,0-7.26,3.52A25.13,25.13,0,0,0,340.27,49.22Zm68.57,14.9a59.19,59.19,0,0,0,2-12.19,28.93,28.93,0,0,0-1.64-13c-.93-2.28-2.22-4.29-4.88-4.77a11.08,11.08,0,0,0-4.68.28,35.81,35.81,0,0,0-10.37,4.92,71.47,71.47,0,0,0-7.49,5.82c-2,1.75-2,1.79-.63,3.64.07.09.16.17.24.26a114.77,114.77,0,0,1,9.19,11.56,1.2,1.2,0,0,0,1,.66c2.32.24,4.63.63,7,.92A101.19,101.19,0,0,1,408.84,64.12Zm28.05,23.8a5.76,5.76,0,0,0-.18-1.2c-.88-3.08-3-5.15-5.46-7-5.19-4-11.19-6.33-17.35-8.32-.67-.22-1-.05-1.27.68a126,126,0,0,1-6,15.37,1,1,0,0,0,0,1c.59,1.23,1.2,2.45,1.75,3.69,1.73,3.91,3.25,7.9,4.6,12,.2.63.25.69.89.5a57.1,57.1,0,0,0,7.31-2.69c5.12-2.3,10.09-4.84,13.69-9.35A8.34,8.34,0,0,0,436.89,87.92Zm-41.54,20.22a1.49,1.49,0,0,0,1.11.13c3.39-.63,6.83-1,10.2-1.82,1-.23.87-.49.64-1.16-1.22-3.64-2.66-7.18-4.19-10.76C400.72,99.22,398.13,103.68,395.35,108.14ZM348.18,94.81a101.64,101.64,0,0,0-4.35,11.69,122.8,122.8,0,0,0,12.19,2C353.31,104,350.6,99.65,348.18,94.81Zm35.36-33.92c-2.46-3.16-4.72-6.09-7.26-8.8-.62-.66-1-.53-1.47.07-1.27,1.54-2.59,3-3.86,4.59-1,1.27-2,2.59-3.24,4.12A99.6,99.6,0,0,1,383.54,60.89Z" transform="translate(0 1)"/><path class="a14d77e6-83f7-4b69-bdc1-f63601c0ad25" d="M693.32,109a11.88,11.88,0,0,1-6.94,2.68c-3,.17-5.78-.13-8.2-2.14a8.8,8.8,0,0,1-2.75-5.35,21,21,0,0,1-.24-4.48c0-8.5,0-17,0-25.5,0-1-.2-1.31-1.22-1.25-1.66.09-3.34,0-5,0-.68,0-1-.09-1-.89.07-1.59,0-3.18,0-4.77,0-.62.17-.82.8-.81,1.51,0,3,0,4.53,0,1.84,0,1.84,0,1.84-1.78,0-3.06,0-6.12,0-9.18,0-.78.22-1,1-1,1.66.06,3.33.07,5,0,.89,0,1.22.16,1.2,1.15-.07,3.26,0,6.51,0,9.77,0,.85.23,1.07,1.06,1,2.3-.06,4.61,0,6.91,0,.65,0,.91.14.89.85q-.08,2.39,0,4.77c0,.7-.23.86-.89.85-2.34,0-4.68,0-7,0-.71,0-.94.16-.94.92,0,9-.07,18,.06,27.05.06,3.63,2.93,5.42,6.48,4a6.65,6.65,0,0,0,1.53-.83c.71-.52,1-.33,1.3.44.49,1.33,1.08,2.62,1.62,3.93Z" transform="translate(0 1)"/><path class="a14d77e6-83f7-4b69-bdc1-f63601c0ad25" d="M522.21,110.68c-2.89,0-5.63,0-8.38,0a1.23,1.23,0,0,1-1.21-.68c-3.75-5.91-7.55-11.79-11.33-17.68-1.07-1.67-2.15-3.33-3.22-5a1.46,1.46,0,0,0-1.41-.75c-3.26,0-6.52.05-9.78,0-.88,0-1.13.19-1.12,1.1,0,7.2,0,14.39.05,21.58,0,1.27-.36,1.52-1.51,1.45-1.74-.09-3.5-.06-5.25,0-.74,0-.93-.2-.92-.93,0-2.62,0-5.25,0-7.87q0-25.22,0-50.44c0-1,.19-1.39,1.33-1.38,8.19.06,16.38,0,24.57,0a17.12,17.12,0,0,1,17.36,15.57,19.61,19.61,0,0,1-1.62,11.08c-2.61,5.35-7.07,8.28-12.92,9.09-.7.1-.8.21-.38.84,2.18,3.22,4.3,6.48,6.45,9.72,3,4.54,6,9.07,9.05,13.61A4.26,4.26,0,0,1,522.21,110.68ZM485.78,68.44c0,3.46,0,6.92,0,10.37,0,.89.2,1.15,1.11,1.12,5.5-.15,11,.25,16.52-.26a10.74,10.74,0,0,0,7.27-3.59,11.51,11.51,0,0,0,2.57-10.19,10.58,10.58,0,0,0-10.11-8.8c-5.47-.31-11-.06-16.45-.09-.77,0-.91.25-.91,1C485.8,61.45,485.78,64.94,485.78,68.44Z" transform="translate(0 1)"/><path class="a14d77e6-83f7-4b69-bdc1-f63601c0ad25" d="M552.81,91.12c-5.53,0-11,0-16.57,0-1.08,0-1.22.46-1.07,1.25,1.17,6.29,4.47,11.06,11,13,5,1.44,9.72.46,14.21-2.06a41.42,41.42,0,0,0,3.38-2.49c.4-.28.51-.41.86.11.78,1.17,1.68,2.25,2.57,3.34.54.66.27,1.08-.27,1.55a24.48,24.48,0,0,1-9.71,5.17,25.76,25.76,0,0,1-7,.9c-7,0-13.16-2.37-17.69-7.94A22.1,22.1,0,0,1,528,93.06a30.57,30.57,0,0,1-.15-7.46,22.3,22.3,0,0,1,4.34-11.41A21.4,21.4,0,0,1,539,68.1a19.23,19.23,0,0,1,6.59-2.25A22.53,22.53,0,0,1,557.4,67a18.89,18.89,0,0,1,9.29,7.76,25.31,25.31,0,0,1,3.59,10.86c.15,1.47.06,2.92.2,4.37.08.89-.19,1.13-1.1,1.12C563.86,91.1,558.33,91.12,552.81,91.12Zm-3.44-5.25h12.16c2,0,2,0,1.8-2a7.29,7.29,0,0,0-.26-1.25c-2-8.2-8.55-12-16.12-11a12.74,12.74,0,0,0-8.87,5.56,18.19,18.19,0,0,0-2.9,7.17c-.27,1.39-.1,1.54,1.33,1.54Z" transform="translate(0 1)"/><path class="a14d77e6-83f7-4b69-bdc1-f63601c0ad25" d="M608.55,88.13c-.16-3.47.63-7-.51-10.35s-3.71-5-6.88-5.68a16.86,16.86,0,0,0-13.23,2.54,19.68,19.68,0,0,0-3.1,2.72c-.43.45-.66.52-1-.12a35,35,0,0,0-2.32-3.35,1,1,0,0,1,.11-1.66A22,22,0,0,1,595,65.81a26.53,26.53,0,0,1,10.83.77,12.92,12.92,0,0,1,9.48,10.26,17.34,17.34,0,0,1,.22,3.29c0,9.78,0,19.55,0,29.32,0,1-.21,1.31-1.23,1.25a40.08,40.08,0,0,0-4.65,0c-.93,0-1.14-.28-1.08-1.14.07-1.07,0-2.14,0-3.36-1.53,1-2.76,2.22-4.28,3.07a18.86,18.86,0,0,1-7.14,2.32,18.66,18.66,0,0,1-7.43-.41c-5.86-1.69-9.7-5.22-10.74-11.43a14.15,14.15,0,0,1,2.18-11A14,14,0,0,1,590,83.07a21.15,21.15,0,0,1,13.91,1.63A16.37,16.37,0,0,1,608.55,88.13Zm.08,9.1a13.35,13.35,0,0,1,0-1.79,4.26,4.26,0,0,0-1.88-4.2,14.8,14.8,0,0,0-14.64-2.66,9,9,0,0,0-5.66,11.54c1.44,4.16,5,6.15,9.27,6.49a17,17,0,0,0,7.35-1.19,11.71,11.71,0,0,0,5.29-4c.75-1,.13-2.47.25-3.71A3.84,3.84,0,0,0,608.63,97.23Z" transform="translate(0 1)"/><path class="a14d77e6-83f7-4b69-bdc1-f63601c0ad25" d="M664.61,104.1a17.76,17.76,0,0,1-7.27,5.94,20.78,20.78,0,0,1-6.65,1.62,22.53,22.53,0,0,1-9.7-1c-7.34-2.6-11.77-7.88-13.76-15.35a26.79,26.79,0,0,1-.65-9.5A22,22,0,0,1,634,70.7a20.24,20.24,0,0,1,11.15-4.89A22.64,22.64,0,0,1,658.82,68c2.2,1.17,3.81,3,5.51,4.78.2.2.49.57,0,.88-1.49,1-2.57,2.54-4,3.61-.52.38-.73.1-1-.2a12,12,0,0,0-7.92-5,14.31,14.31,0,0,0-11.52,2.63c-4,3-5.53,7.16-6,11.94A19.1,19.1,0,0,0,636,97.77a13.47,13.47,0,0,0,10.43,7.45,13.81,13.81,0,0,0,9.06-1.47,15.46,15.46,0,0,0,4.14-3.67c.37-.41.48-.37.78-.06A56.59,56.59,0,0,1,664.61,104.1Z" transform="translate(0 1)"/><path class="a14d77e6-83f7-4b69-bdc1-f63601c0ad25" d="M375.53,99.94c-6.94-.21-12-5.23-12.06-12a12.11,12.11,0,1,1,24.21-.17C387.73,94.69,382.54,99.78,375.53,99.94Z" transform="translate(0 1)"/><text class="b20d6a52-8f25-400c-9b55-8e633fb0b5fa" transform="translate(310.35 380.29)">Usa componentes pa<tspan class="f8a69849-33a6-41c2-a74e-bcf941c3e802" x="150.64" y="0">r</tspan><tspan x="155.74" y="0">a construir la app</tspan></text><text class="b20d6a52-8f25-400c-9b55-8e633fb0b5fa" transform="translate(310.35 223.55)">React es una biblioteca J<tspan class="bbff161c-3d34-4a45-9d53-b98727d04156" x="177.89" y="0">av</tspan><tspan x="194.11" y="0">ascript </tspan><tspan x="0" y="19.2">diseñada pa</tspan><tspan class="f8a69849-33a6-41c2-a74e-bcf941c3e802" x="86.53" y="19.2">r</tspan><tspan x="91.63" y="19.2">a c</tspan><tspan class="bd91452d-1eb2-40ce-8c39-2c1f2e15ad6b" x="112.67" y="19.2">r</tspan><tspan x="117.94" y="19.2">ear inte</tspan><tspan class="f0b8f12a-2b7c-4eb2-93c2-ff138e826605" x="170.91" y="19.2">r</tspan><tspan x="176.44" y="19.2">faces de usuario</tspan><tspan x="0" y="38.4">con el objeti</tspan><tspan class="bbff161c-3d34-4a45-9d53-b98727d04156" x="86.12" y="38.4">v</tspan><tspan x="93.75" y="38.4">o de facilitar el desar</tspan><tspan class="fd600192-7656-426f-aeaa-e9432e381e31" x="242.07" y="38.4">r</tspan><tspan x="247.33" y="38.4">ollo</tspan><tspan x="0" y="57.6">de single-page application (S</tspan><tspan class="addede0a-1068-4958-81b6-117ad53acdd5" x="204.75" y="57.6">P</tspan><tspan x="213.77" y="57.6">A)</tspan></text><text class="f42f2061-6cb7-43c0-a57e-dd564721ff82" transform="translate(593.78 175.33)">un mon<tspan class="fd600192-7656-426f-aeaa-e9432e381e31" x="53.59" y="0">t</tspan><tspan x="58.66" y="0">ón de funciones</tspan></text><text class="f42f2061-6cb7-43c0-a57e-dd564721ff82" transform="translate(649.45 264.8)">pun<tspan class="fd600192-7656-426f-aeaa-e9432e381e31" x="26.63" y="0">t</tspan><tspan x="31.7" y="0">os de contac</tspan><tspan class="fd600192-7656-426f-aeaa-e9432e381e31" x="123.13" y="0">t</tspan><tspan x="128.2" y="0">o ent</tspan><tspan class="bd91452d-1eb2-40ce-8c39-2c1f2e15ad6b" x="163.81" y="0">r</tspan><tspan x="169.08" y="0">e</tspan><tspan x="0" y="19.2">el usuario y el equipo</tspan></text><text class="f42f2061-6cb7-43c0-a57e-dd564721ff82" transform="translate(65.37 328.57)">aplicaciones en una sola página</text><text class="b20d6a52-8f25-400c-9b55-8e633fb0b5fa" transform="matrix(1, 0, 0, 1, 310.16, 454.5)">Los componente puede ser personalizado <tspan x="0" y="19.2">mediante p</tspan><tspan class="fd600192-7656-426f-aeaa-e9432e381e31" x="79.58" y="19.2">r</tspan><tspan x="84.84" y="19.2">ops</tspan></text><text class="b1baf652-49c8-4832-9bb1-82707d63bf58" transform="matrix(1, 0, 0, 1, 162.16, 635.5)">impo<tspan class="e97be040-21fe-4e9f-b4f8-038b909e39cb" x="36.01" y="0">r</tspan><tspan x="41.81" y="0">t</tspan></text><text class="b1baf652-49c8-4832-9bb1-82707d63bf58" transform="matrix(1, 0, 0, 1, 162.16, 970.5)">impo<tspan class="e97be040-21fe-4e9f-b4f8-038b909e39cb" x="36.01" y="0">r</tspan><tspan x="41.81" y="0">t</tspan></text><text class="b1baf652-49c8-4832-9bb1-82707d63bf58" transform="matrix(1, 0, 0, 1, 162.16, 697.5)">componente</text><text class="b1baf652-49c8-4832-9bb1-82707d63bf58" transform="matrix(1, 0, 0, 1, 162.16, 1023.5)">componente</text><text class="a573ef61-58d3-40c4-bc44-7c258d55d7bb" transform="matrix(1, 0, 0, 1, 839.16, 664.5)">p<tspan class="fd600192-7656-426f-aeaa-e9432e381e31" x="8.98" y="0">r</tspan><tspan x="14.23" y="0">opiedades</tspan></text><text class="b1baf652-49c8-4832-9bb1-82707d63bf58" transform="matrix(1, 0, 0, 1, 162.16, 829.5)">expo<tspan class="e97be040-21fe-4e9f-b4f8-038b909e39cb" x="34.51" y="0">r</tspan><tspan x="40.31" y="0">t</tspan></text><polyline class="bbd7a44a-8eed-44f8-a34b-46eebc23635b" points="403.38 226.84 561.01 226.84 580.66 182.46 775 182.46"/><polyline class="bbd7a44a-8eed-44f8-a34b-46eebc23635b" points="540.51 290.93 330.75 290.93 304.61 340.33 46 340.33"/><text class="f42f2061-6cb7-43c0-a57e-dd564721ff82" transform="translate(94.38 403.56)">elemen<tspan class="fd600192-7656-426f-aeaa-e9432e381e31" x="52.16" y="0">t</tspan><tspan x="57.23" y="0">os au</tspan><tspan class="fd600192-7656-426f-aeaa-e9432e381e31" x="96.09" y="0">t</tspan><tspan x="101.16" y="0">ónomos</tspan><tspan x="0" y="19.2">que puede </tspan><tspan class="bd91452d-1eb2-40ce-8c39-2c1f2e15ad6b" x="78.09" y="19.2">r</tspan><tspan x="83.35" y="19.2">eutilizar</tspan></text><polyline class="bbd7a44a-8eed-44f8-a34b-46eebc23635b" points="434 387.16 332.67 387.16 262.74 436.55 83 437"/><polyline class="bbd7a44a-8eed-44f8-a34b-46eebc23635b" points="454.1 245.79 615.67 245.79 635.81 295.18 835 295.18"/><text class="f42f2061-6cb7-43c0-a57e-dd564721ff82" transform="translate(526.91 522.83)">p<tspan class="fd600192-7656-426f-aeaa-e9432e381e31" x="8.98" y="0">r</tspan><tspan x="14.23" y="0">opiedades(colo</tspan><tspan class="b4e872fd-b4a7-435e-95a3-d0eb1bd8063b" x="124.15" y="0">r</tspan><tspan x="128.6" y="0">, tamaño, función, etc.)</tspan></text><polyline class="bbd7a44a-8eed-44f8-a34b-46eebc23635b" points="382.18 481.86 422.54 481.86 517.35 531.25 810 531.25"/><line class="b3315d06-9255-4006-8f2c-09e2a9cc6553" x1="511" y1="670" x2="830" y2="659"/><line class="b3315d06-9255-4006-8f2c-09e2a9cc6553" x1="603" y1="714" x2="830.5" y2="659.5"/><text class="a2ea49ef-9eb7-4f10-860f-3b506682b9a6" transform="matrix(1, 0, 0, 1, 21.16, 920.5)">uso<tspan x="0" y="19.2">del Componente</tspan></text><text class="a2ea49ef-9eb7-4f10-860f-3b506682b9a6" transform="matrix(1, 0, 0, 1, 21.16, 590.5)">c<tspan class="bd91452d-1eb2-40ce-8c39-2c1f2e15ad6b" x="8.38" y="0">r</tspan><tspan x="13.64" y="0">eación</tspan><tspan x="0" y="19.2">del Componente</tspan></text><path class="f6aaa7ab-ea77-4519-8f8f-d9036f610cca" d="M602.54,967.79V973c0,.71,0,1.34-1,1.34s-.87-.79-.88-1.4c0-2.58,0-5.15,0-7.73,0-.61-.25-1.41.76-1.54a1.63,1.63,0,0,1,2,1,29,29,0,0,0,3.25,5.76v-5.23c0-.74-.14-1.59,1-1.54,1,.05.91.76.91,1.43,0,2.58,0,5.16,0,7.73,0,.61.21,1.4-.82,1.49s-1.61,0-2-.95c-.83-1.89-1.76-3.73-2.65-5.59Z" transform="translate(0 1)"/><path class="a67e0272-51a3-4fa0-90b9-812e63f1255c" d="M384.89,969.05a13.19,13.19,0,0,1,0-2c.18-1.15-.73-2.81.63-3.37a6.43,6.43,0,0,1,4.83.36c.48.21,1.2.94,1.11,1.19-.84,2.39.89,4.56.54,6.81-.29,1.85-1.88,2.3-3.6,2.27-4.31-.08-3.42.47-3.53-3.54C384.88,970.2,384.89,969.62,384.89,969.05Zm1.85,2.19c-.21.93-.07,1.71,1.44,1.58,1.24-.1,2.06-.36,2.05-1.82s-.91-1.69-2.1-1.82C386.49,969,386.69,970,386.74,971.24Zm1.42-6.1c-.54,0-1.47-.34-1.43.87,0,.65-.35,1.65.87,1.58.83,0,1.91.14,2.16-1.06S389.15,965.22,388.16,965.14Z" transform="translate(0 1)"/><path class="f0b22221-c442-4fc0-98b7-c36fa97c6cd9" d="M332.78,1011.65a9.18,9.18,0,0,1,0-1.74c.19-1.08-.73-2.69.59-3.15a6.25,6.25,0,0,1,5.07.43c.78.44,1.42,1.4,1.1,2.07-.75,1.55-.19,2.78.23,4.23.61,2.13-.54,3.5-2.78,3.77h-.24c-4,.33-4,.33-4-3.62Zm3.32,4.13c1.33,0,2.13-.44,2.09-1.85s-1-1.71-2.14-1.81c-1.86-.16-1.29,1.21-1.39,2.15C334.53,1015.41,334.94,1016,336.1,1015.78Zm0-7.75c-1.11-.16-1.44.32-1.43,1.24s.15,1.52,1.2,1.35c.85-.13,1.91-.11,1.89-1.4S336.66,1008.21,336.06,1008Z" transform="translate(0 1)"/><path class="a67e0272-51a3-4fa0-90b9-812e63f1255c" d="M392.8,952.59c-1.32.46-2,.23-2.43-.85a17.63,17.63,0,0,0-1.12-2.21,1.89,1.89,0,0,0-2.08-1c-.88.19-.43,1.1-.51,1.7a9.25,9.25,0,0,0,0,1.49c0,.67-.18,1.09-1,1.11s-1-.41-1-1.08c0-2.83,0-5.65,0-8.47,0-.41-.06-1,.41-1.07,1.89-.36,3.89-.51,5.46.76a2.65,2.65,0,0,1,.29,4.16c-.63.67-.48,1-.11,1.62C391.48,950,392.08,951.21,392.8,952.59Zm-6.13-7.26c-.17,1,0,1.64,1.24,1.53,1-.09,1.76-.36,1.77-1.56,0-1.37-.94-1.56-2-1.63C386.27,943.56,386.76,944.65,386.67,945.33Z" transform="translate(0 1)"/><path class="af90ff16-d248-421f-a222-22c4d0db532e" d="M332.54,970.3v-.5c0-3.62,0-3.61,3.75-3.31,1.12.09,2.66-1.13,3.22.61.69,2.15.4,4.45.25,6.69,0,.16-.31.4-.5.41-.57,0-.64-.4-.65-.82,0-1.5,0-3-.1-4.5,0-.54-.06-1.31-.79-1.31s-.73.8-.79,1.34c-.09.82,0,1.68-.11,2.48-.18,1,.71,2.69-.68,2.67-1.14,0-.41-1.8-.57-2.78-.11-.65,0-1.34-.06-2s0-1.55-.88-1.49-.73,1-.76,1.59c-.06,1.24,0,2.49-.06,3.74,0,.47.09,1.12-.65,1.08s-.58-.69-.6-1.15c0-.92,0-1.84,0-2.75Z" transform="translate(0 1)"/><path class="af90ff16-d248-421f-a222-22c4d0db532e" d="M332.54,948.73V948c0-3.47,0-3.53,3.6-3,.66.1,1.09-.25,1.64-.26a1.67,1.67,0,0,1,1.57.53c.42.56.81,6.52.4,7.13a.76.76,0,0,1-.57.34c-.56,0-.57-.49-.58-.9,0-1.5,0-3-.1-4.49,0-.52,0-1.31-.86-1.24-.56,0-.67.7-.7,1.17-.07,1.49-.07,3-.11,4.49,0,.4,0,.92-.52,1-.73.08-.72-.52-.74-1-.05-1.5-.05-3-.13-4.49,0-.48-.23-1.05-.89-1-.46.07-.6.56-.62,1-.06,1.49-.07,3-.12,4.48,0,.5,0,1.1-.73,1-.53-.07-.51-.58-.52-1,0-1,0-2,0-3Z" transform="translate(0 1)"/><path class="b8672db3-7549-4996-94c4-7842511d5a61" d="M452,1013a34.36,34.36,0,0,1,0,4.39,3.59,3.59,0,0,1-5.05,2.88c-.57-.21-.83-.52-.71-1.09s.57-.46,1-.41a7.43,7.43,0,0,0,1.48.15c.67,0,1.42-.22,1.41-1.08,0-1-.84-.48-1.31-.51-2.51-.17-3.82-1.83-3.57-4.61s1.64-3.51,4.23-3.57C453.49,1009,451.75,1011.85,452,1013Zm-1.74.38c-.06-1.22.07-2.69-1.48-2.79s-1.73,1.3-1.7,2.51-.18,2.56,1.49,2.68S450.14,1014.41,450.29,1013.36Z" transform="translate(0 1)"/><path class="f6aaa7ab-ea77-4519-8f8f-d9036f610cca" d="M623.43,967.4c-.5,1.81-.21,3.38-.36,4.9-.06.7.54,1.94-.82,1.91-1.13,0-.6-1.15-.66-1.79-.1-1.08,0-2.16-.08-3.24,0-.57,0-1.35-.75-1.37-.87,0-.61.82-.64,1.33-.06,1.41,0,2.82,0,4.24,0,.59-.24.94-.89.88s-.61-.44-.61-.88c0-2.08,0-4.15,0-6.23,0-.62.27-1,.89-.88.82.13,1.62-.56,2.43-.07,1.16.71,2.89-1.21,3.73.77.91,2.15.42,4.43.45,6.66,0,.5-.4.67-.87.62s-.57-.51-.58-.91c0-1.08,0-2.16,0-3.24C624.54,969.22,624.77,968.24,623.43,967.4Z" transform="translate(0 1)"/><path class="ea44b806-e531-43c2-824d-8ababcf19e25" d="M532.49,971.53c0-.75,0-1.49,0-2.24,0-3.19,0-3.19,3.45-3.27,2,0,3.21,1.53,3.24,4.12,0,2.82-1.14,4.64-3.21,4.3-1.78-.3-2,.29-1.83,1.69.06.6,0,1.19-.87,1.14s-.75-.74-.76-1.28C532.47,974.5,532.49,973,532.49,971.53Zm5.16-1.44c-.31-1-.24-2.56-1.72-2.56-1.78,0-1.79,1.59-1.79,3s.26,2.57,1.71,2.53C537.49,973,537.41,971.39,537.65,970.09Z" transform="translate(0 1)"/><path class="fdc59661-d6a9-4881-a14f-bc9d7a5b8399" d="M462.62,970.25V970c0-3.79,0-3.78,3.8-3.55,1.12.07,2.63-1.1,3.22.68a15.3,15.3,0,0,1,.26,6.67c0,.36-.41.5-.78.4-.53-.14-.45-.63-.46-1,0-1.5,0-3-.08-4.49,0-.52-.19-1.11-.75-1.12s-.69.64-.71,1.13c-.06,1.33,0,2.66-.1,4,0,.6.22,1.54-.81,1.48-.85,0-.54-.88-.57-1.39-.06-1.25,0-2.5-.07-3.75,0-.56-.07-1.28-.87-1.23s-.6.72-.62,1.17c-.06,1.42-.05,2.83-.1,4.25,0,.5-.12,1-.81,1s-.52-.57-.53-1c0-1,0-2,0-3Z" transform="translate(0 1)"/><path class="fdc59661-d6a9-4881-a14f-bc9d7a5b8399" d="M467.82,945.45c-1.15,2.34-.63,4.19-.8,6,0,.54.1,1.33-.75,1.31s-.6-.84-.63-1.36c-.07-1.41-.06-2.82-.13-4.24a.77.77,0,0,0-.75-.82c-.55,0-.62.5-.65.89-.06,1.08,0,2.17-.12,3.24-.1.79.56,2.21-.76,2.21-1.1,0-.43-1.34-.6-2.07a3.13,3.13,0,0,1,0-.75c0-5.7,0-5.72,5.67-5.17a1.45,1.45,0,0,1,1.44,1.16A22.28,22.28,0,0,1,470,952a.66.66,0,0,1-.81.7c-.58-.07-.48-.57-.53-1C468.42,949.85,469.12,947.82,467.82,945.45Z" transform="translate(0 1)"/><path class="ea44b806-e531-43c2-824d-8ababcf19e25" d="M523.16,970.2v-.75c0-3.61,0-3.64,3.75-3.07a2.38,2.38,0,0,0,1.14-.14c1.84-.62,2.45.49,2.57,2s.06,3.16,0,4.74c0,.52.2,1.26-.71,1.29s-.77-.69-.78-1.24c0-1.33,0-2.66,0-4,0-.59,0-1.37-.69-1.4s-.78.71-.78,1.32c0,1.17.05,2.33,0,3.49,0,.64.48,1.72-.69,1.78s-.74-1-.78-1.67c-.08-1.24,0-2.49,0-3.74,0-.54-.2-1.11-.74-1.12s-.71.59-.72,1.12c0,1.25.05,2.5,0,3.74,0,.62.47,1.75-.79,1.67s-.59-1.14-.67-1.78A16.73,16.73,0,0,1,523.16,970.2Z" transform="translate(0 1)"/><path class="f9405a28-8a6f-4dba-a6cb-df6f96bd76d6" d="M348.44,948.58c-.05,3.16-1.15,4.41-3.82,4.22-1.26-.09-1.35.37-1.36,1.34,0,.57.35,1.56-.66,1.56s-.79-1.06-.8-1.72c-.05-2.15-.11-4.31,0-6.45.05-.92-.77-2.3.85-2.69,2.94-.71,4.79-.07,5.44,1.87A10,10,0,0,1,348.44,948.58Zm-1.58.26c-.11-1.22,0-2.79-1.69-2.84s-1.81,1.48-1.84,2.72.14,2.8,1.72,2.87S346.74,950.11,346.86,948.84Z" transform="translate(0 1)"/><path class="f9405a28-8a6f-4dba-a6cb-df6f96bd76d6" d="M341.78,971.72v-2c0-3.66,0-3.66,3.59-3.59,2,0,3.11,1.61,3.06,4.28s-1.18,4.18-3.58,3.89c-1.61-.2-1.6.49-1.59,1.59,0,.52.21,1.3-.68,1.31s-.78-.71-.79-1.27c0-1.41,0-2.81,0-4.22Zm5.08-1.42c-.12-1.24-.05-2.81-1.73-2.82s-1.78,1.53-1.8,2.77.16,2.79,1.76,2.83S346.74,971.55,346.86,970.3Z" transform="translate(0 1)"/><path class="e9838760-bf41-472a-b66a-01286c3a75f8" d="M397.54,953.07a4.29,4.29,0,0,1-.84-8.51,3.07,3.07,0,0,1,3.21,1.43c.46.77,1.08,1.67.59,2.54s-1.37.25-2.09.33a10.17,10.17,0,0,0-1.24,0c-.69.17-1.86-.61-1.95.79s1,1.75,2.14,1.94c.16,0,.34-.1.49-.06.77.22,2.1-1.35,2.24.21S398.28,952.58,397.54,953.07Zm-2.46-5.48c1.38,0,2.6.55,3.47-.3.5-.49-.32-1-.84-1.2C396.45,945.62,395.77,946.28,395.08,947.59Z" transform="translate(0 1)"/><path class="ea44b806-e531-43c2-824d-8ababcf19e25" d="M512.91,949.83c-.17.76.41,2.64-.34,2.69-1.72.1-3.51,1-5.23.17a2.29,2.29,0,0,1-1.2-2.29,2.22,2.22,0,0,1,1.22-2.25c.44-.2,1-.21,1.41-.41.74-.34,2.27.37,2.16-.85s-1.44-1-2.49-.78c-.55.13-1.38.78-1.67-.19s.69-1.11,1.4-1.22C511.83,944.14,513.23,945.47,512.91,949.83Zm-3.12-1c-.67.1-1.78.15-2,1.34-.22,1,.68,1.29,1.39,1.33a1.85,1.85,0,0,0,2-1.75C511.29,949,510.78,948.81,509.79,948.88Z" transform="translate(0 1)"/><path class="ea44b806-e531-43c2-824d-8ababcf19e25" d="M616.88,971.5c-.25.74.52,2.62-.52,2.6-1.74,0-3.53,1.1-5.23,0a2.58,2.58,0,0,1-1-2.89c.31-1.66,1.68-1.8,3-2,.62-.11,1.83.37,1.74-.74-.08-.93-1.14-1-2-.91-.41.07-.8.23-1.21.3s-.86.24-1-.34.1-.89.65-1.14a3.73,3.73,0,0,1,5.5,3.21C616.91,970.1,616.88,970.68,616.88,971.5Zm-1.76-.14c.07-1-.53-1.07-1.13-1-1,.11-2.1.21-2.27,1.44-.14,1,.77,1.25,1.49,1.26A1.88,1.88,0,0,0,615.12,971.36Z" transform="translate(0 1)"/><path class="e9838760-bf41-472a-b66a-01286c3a75f8" d="M407.27,947.42c-1-1.84-2.19-1.51-3.44-1.16-.36.1-1,.62-1.16-.23-.15-.63,0-1,.78-1.26,2.39-.7,5.83,0,5.29,3.37a6.54,6.54,0,0,0,0,1c0,3.83-.5,4.31-4.31,3.91a2.65,2.65,0,0,1-.53-5.18A30.6,30.6,0,0,1,407.27,947.42Zm-1.39,1.42c-.88.24-2.07.13-2.18,1.51-.08,1,.79,1.24,1.5,1.21a2,2,0,0,0,1.91-2C407.27,948.6,406.43,948.94,405.88,948.84Z" transform="translate(0 1)"/><path class="f6aaa7ab-ea77-4519-8f8f-d9036f610cca" d="M501.76,953.06c-2.69,0-4.31-1.43-4.53-3.86a4.05,4.05,0,0,1,3.23-4.58,3.11,3.11,0,0,1,3.43,1.37,2.74,2.74,0,0,1,.65,2.32c-.37,1-1.43.42-2.17.55-.4.07-.84-.06-1.24,0-.68.16-1.84-.57-1.93.81s.85,1.68,1.91,1.87c.23,0,.49-.06.73,0,.77.1,2-1.18,2.21.06C504.38,953.5,502.31,952.42,501.76,953.06Zm-.77-5.34c.57-.17,1.55.32,1.58-.64s-.86-1.19-1.6-1.15-1.66.44-1.6,1.24S500.43,947.53,501,947.72Z" transform="translate(0 1)"/><path class="e9838760-bf41-472a-b66a-01286c3a75f8" d="M400.41,970.49c-.08,2.65-1.45,4.17-3.65,4.07s-3.49-1.83-3.44-4.36,1.51-4.26,3.6-4.26S400.49,967.77,400.41,970.49Zm-1.72.4c0-1.82-.12-3.25-1.67-3.35s-1.86,1.3-1.86,2.63,0,2.73,1.66,2.82S398.66,971.68,398.69,970.89Z" transform="translate(0 1)"/><path class="f6aaa7ab-ea77-4519-8f8f-d9036f610cca" d="M558.08,970.24c0-2.48,1.16-4,3.34-4.19a3.2,3.2,0,0,1,3.65,2.32c.36,1.09.44,2.23-1.36,2a6.32,6.32,0,0,0-2,0c-.67.13-1.89-.66-1.88.76a2,2,0,0,0,2,1.89,11.61,11.61,0,0,0,1.72-.23c.48,0,1.16-.78,1.42.2s-.43,1.1-1.12,1.31C560.53,975.32,558.06,973.58,558.08,970.24Zm3.77-1c.51-.23,1.52.41,1.54-.58,0-.8-.81-1.25-1.59-1.21s-1.66.31-1.59,1.18S561.25,969.05,561.85,969.21Z" transform="translate(0 1)"/><path class="f6aaa7ab-ea77-4519-8f8f-d9036f610cca" d="M631.51,973.1a1.87,1.87,0,0,1,.71-.14c.68.19,1.67-1.2,2,.16s-1.09,1.19-1.9,1.32c-2.82.43-4.53-.86-4.88-3.58-.32-2.49,1-4.4,3.22-4.78a3.18,3.18,0,0,1,3,.9,2.74,2.74,0,0,1,.95,2.91c-.38.92-1.47.34-2.23.46-.33,0-.69-.06-1,0-.74.2-2.08-.63-2.07.88C629.25,972.54,630.34,973,631.51,973.1Zm-2.31-3.87c1.32-.24,2.54.48,3.38-.52.45-.53-.31-1-.85-1.18C630.51,967.18,629.75,967.7,629.2,969.23Z" transform="translate(0 1)"/><path class="e9838760-bf41-472a-b66a-01286c3a75f8" d="M419.71,970.15v-.49c0-3.54,0-3.64,3.76-3.63,2.54,0,2.68,2,2.7,3.88,0,1.16,0,2.32,0,3.48,0,.57-.16.92-.83.91s-.82-.41-.82-1c0-1.24.06-2.49,0-3.73-.07-.86-.06-2-1.32-2s-1.6,1-1.69,2-.06,2.32-.1,3.47c0,.56.08,1.2-.81,1.22s-.85-.57-.85-1.15Z" transform="translate(0 1)"/><path class="f0b22221-c442-4fc0-98b7-c36fa97c6cd9" d="M367.74,1013.15c0-.16,0-.33,0-.49,0-3.65,0-3.7,3.84-3.61,2.46.06,2.53,2,2.59,3.75,0,1.16,0,2.33,0,3.49,0,.53-.12,1-.81,1s-.78-.48-.79-1c0-1.41,0-2.83-.13-4.23-.06-.76-.39-1.54-1.34-1.52s-1.29.58-1.52,1.4a19.17,19.17,0,0,0-.23,4.21c0,.62-.06,1.19-.92,1.12s-.67-.61-.68-1.1C367.73,1015.15,367.74,1014.15,367.74,1013.15Z" transform="translate(0 1)"/><path class="ea44b806-e531-43c2-824d-8ababcf19e25" d="M549.69,970.21c0-.25,0-.5,0-.75,0-3.4,0-3.48,3.8-3.42,2.41,0,2.62,1.88,2.65,3.72a22.76,22.76,0,0,1,0,2.74c-.07.63.5,1.68-.74,1.75s-.83-1-.88-1.63c-.07-.91,0-1.84,0-2.75s0-2.23-1.36-2.27-1.6,1.23-1.7,2.31,0,2.16-.07,3.24c0,.63-.09,1.17-.93,1.12s-.7-.58-.71-1.06C549.68,972.21,549.69,971.21,549.69,970.21Z" transform="translate(0 1)"/><path class="f6aaa7ab-ea77-4519-8f8f-d9036f610cca" d="M521.7,970.22c0,2.79-1.12,4.28-3.33,4.35s-3.71-1.62-3.69-4.35,1.4-4.25,3.56-4.25S521.68,967.52,521.7,970.22Zm-5.18.12c.07,1.26.1,2.73,1.81,2.65s1.79-1.54,1.76-2.78-.26-2.72-1.88-2.67S516.58,969.09,516.52,970.34Z" transform="translate(0 1)"/><path class="f6aaa7ab-ea77-4519-8f8f-d9036f610cca" d="M443.72,1013.33c0,2.74-1.23,4.21-3.46,4.2s-3.54-1.6-3.56-4.22,1.47-4.46,3.7-4.37S443.73,1010.58,443.72,1013.33Zm-5.18,0c.11,1-.09,2.68,1.8,2.67,1.48,0,1.75-1.39,1.77-2.54,0-1.32-.13-2.89-1.88-2.91C438.74,1010.49,438.59,1011.86,438.54,1013.3Z" transform="translate(0 1)"/><path class="f6aaa7ab-ea77-4519-8f8f-d9036f610cca" d="M547.69,970.3c0,2.76-1.18,4.24-3.4,4.26s-3.57-1.55-3.61-4.17,1.41-4.47,3.64-4.43S547.69,967.57,547.69,970.3Zm-5.17.1c.08,1.26.13,2.72,1.86,2.58s1.75-1.6,1.7-2.83-.29-2.72-1.94-2.6S542.58,969.16,542.52,970.4Z" transform="translate(0 1)"/><path class="e9838760-bf41-472a-b66a-01286c3a75f8" d="M417.72,970.39c0,2.74-1.25,4.21-3.5,4.17s-3.51-1.62-3.51-4.27S412,966,414.2,966,417.75,967.53,417.72,970.39Zm-5.18-.06c.09,1.14,0,2.65,1.71,2.67s1.85-1.46,1.87-2.69-.22-2.74-1.79-2.78S412.6,969,412.54,970.33Z" transform="translate(0 1)"/><path class="f0b22221-c442-4fc0-98b7-c36fa97c6cd9" d="M358.69,1013c.06-2.64,1.39-4.13,3.63-4s3.41,1.69,3.38,4.34-1.33,4.15-3.57,4.13S358.62,1015.92,358.69,1013Zm5.33.19c-.22-1.22-.2-2.79-1.89-2.75s-1.82,1.54-1.81,2.79.21,2.75,1.86,2.74S363.82,1014.44,364,1013.23Z" transform="translate(0 1)"/><path class="f0b22221-c442-4fc0-98b7-c36fa97c6cd9" d="M348.37,1013.23c0,2.74-1.21,4.25-3.43,4.26s-3.54-1.58-3.55-4.21,1.33-4.27,3.5-4.29S348.36,1010.53,348.37,1013.23Zm-5.21.09c0,1.32.18,2.77,1.83,2.69s1.74-1.52,1.73-2.83-.25-2.76-1.86-2.7S343.15,1012,343.16,1013.32Z" transform="translate(0 1)"/><path class="a67e0272-51a3-4fa0-90b9-812e63f1255c" d="M424.18,952.81c-2.35.19-2.62-1.35-2.84-3-.21-1.48,1-3.66-1.82-4-.11,0-.16-.41-.24-.63,1.83,0,1.92-1.69,2.73-2.7.22-.28,1,0,1,.41-.08,1.71.83,2.07,2.28,1.91a.59.59,0,0,1,.73.5.66.66,0,0,1-.8.71c-2.24-.33-2.15,1.12-2.05,2.59.09,1.29-.56,3,1.84,2.88.54,0,1.14.26,1,.82C425.68,953.27,424.71,952.65,424.18,952.81Z" transform="translate(0 1)"/><path class="ade0c04e-f92c-441f-949c-807252b7d9a0" d="M454.12,948.62c0-2.6,1.21-4,3.38-4s3.48,1.52,3.46,4.21-1.3,4.16-3.56,4.09S454.07,951.42,454.12,948.62Zm1.54.17c.08,1.36.17,2.89,2,2.81,1.61-.06,1.72-1.55,1.72-2.8s-.1-2.74-1.71-2.82C455.84,945.9,455.74,947.43,455.66,948.79Z" transform="translate(0 1)"/><path class="f6aaa7ab-ea77-4519-8f8f-d9036f610cca" d="M587.27,974.61c-.61-.1-1.17-.23-1.75-.3a.88.88,0,0,1-.82-1.23c.19-.8.77-.31,1.19-.27s.65.17,1,.21c.78.11,1.68,0,1.9-.75.29-1-.76-1.18-1.41-1.34-1.16-.28-2.33-.5-2.64-1.87a2.18,2.18,0,0,1,1.26-2.69,4.12,4.12,0,0,1,4,.19c.15.09.17.46.16.69a.52.52,0,0,1-.66.52,14.66,14.66,0,0,0-1.7-.35c-.6,0-1.19.24-1.23,1,0,.55.35.88.93.94a3.71,3.71,0,0,1,.73.18c1.48.39,2.7,1,2.41,2.86S588.73,974.39,587.27,974.61Z" transform="translate(0 1)"/><path class="ade0c04e-f92c-441f-949c-807252b7d9a0" d="M350.14,948.57c.06-2.6,1.24-4,3.43-3.93s3.46,1.56,3.41,4.25-1.32,4.14-3.6,4.05S350.08,951.39,350.14,948.57Zm1.55.07c0,1.37.09,2.91,1.83,3s1.83-1.4,1.84-2.68,0-2.91-1.81-2.95C352,945.94,351.75,947.36,351.69,948.64Z" transform="translate(0 1)"/><path class="ade0c04e-f92c-441f-949c-807252b7d9a0" d="M454.12,970.24c0-2.74,1.22-4.16,3.5-4.11,2.13,0,3.3,1.48,3.34,4.07s-1.2,4.23-3.43,4.23S454.11,973,454.12,970.24Zm5.25,0c-.13-1.2-.14-2.7-1.76-2.75-1.78-.05-1.92,1.46-1.93,2.83s.16,2.73,1.73,2.79C459.22,973.18,459.24,971.59,459.37,970.22Z" transform="translate(0 1)"/><path class="ade0c04e-f92c-441f-949c-807252b7d9a0" d="M350.14,970.16c0-2.61,1.19-4,3.34-4s3.5,1.47,3.5,4.16-1.26,4.19-3.5,4.15S350.11,973,350.14,970.16Zm1.55,0c0,1.37.09,2.92,1.82,3s1.84-1.4,1.85-2.68,0-2.91-1.81-3C352,967.42,351.75,968.85,351.69,970.12Z" transform="translate(0 1)"/><path class="f6aaa7ab-ea77-4519-8f8f-d9036f610cca" d="M463.17,1013.16a1.84,1.84,0,0,1,0-.74c.45-1-1.11-2.95,1.07-3.1,4.71-.32,5.11,0,5.29,3.29.07,1.24,0,2.49,0,3.73a.79.79,0,0,1-.9.91c-.63,0-.87-.36-.87-.94,0-1.32,0-2.65,0-4,0-.88-.16-1.76-1.25-1.79a1.6,1.6,0,0,0-1.63,1.57c-.15,1.32-.12,2.65-.17,4,0,.58.06,1.23-.85,1.16-.72-.06-.66-.61-.67-1.09C463.16,1015.16,463.17,1014.16,463.17,1013.16Z" transform="translate(0 1)"/><path class="f6aaa7ab-ea77-4519-8f8f-d9036f610cca" d="M567.14,970.27a2,2,0,0,1,0-.74c.47-1-1.13-3,1-3.2,4.61-.47,5.15,0,5.37,3.23.07,1.08,0,2.16,0,3.24,0,.62.18,1.43-.84,1.47-1.23,0-.92-.92-1-1.6,0-1.16,0-2.32,0-3.48,0-.82-.23-1.55-1.17-1.62a1.57,1.57,0,0,0-1.63,1.26c-.45,1.38-.15,2.8-.24,4.2,0,.55.13,1.26-.78,1.24s-.72-.73-.74-1.27C567.12,972.09,567.14,971.18,567.14,970.27Z" transform="translate(0 1)"/><path class="f9405a28-8a6f-4dba-a6cb-df6f96bd76d6" d="M443.42,967c-3.79.22-2.42,3.08-2.66,5.21-.08.69.54,2-.75,1.93s-.63-1.28-.72-2a8.76,8.76,0,0,1,0-2.23c.21-1.61-.23-2.71-2.91-2.81,2.06-.88,3.18-1.54,3.51-3.09.16-.74,1.16-.84,1.93-.82.55,0,1.34-.28,1.54.4.26.94-.65.72-1.14.81s-1.27.34-1.22,1C441.1,967,442.8,965.62,443.42,967Z" transform="translate(0 1)"/><path class="f9405a28-8a6f-4dba-a6cb-df6f96bd76d6" d="M437,945.25c2.15,0,2.14-1.74,2.92-2.76.92-1.2,2.28-.8,3.65-.54-.54,1.53-2.74.52-2.61,2.11.1,1.34,1.81.21,2.57,1.36-3.8.44-2.62,3.24-2.79,5.46-.05.65.46,1.76-.63,1.82-1.35.07-.74-1.18-.84-1.88a8.74,8.74,0,0,1,0-2C439.41,947.21,439.38,945.71,437,945.25Z" transform="translate(0 1)"/><path class="fdc59661-d6a9-4881-a14f-bc9d7a5b8399" d="M366.82,945.44c1.56-.76,3-.82,2.87-2.5,0-.41.95-.43.93-.23-.24,2.33,2.61,1.42,3,3a.68.68,0,0,1-.4.21c-1.48-.09-2.38.35-2.21,2.08s-.55,3.71,2.28,3.69a.51.51,0,0,1,.46.71.91.91,0,0,1-.52.41,2.72,2.72,0,0,1-3.67-2.18,6.76,6.76,0,0,1-.06-1.49C369.63,947.42,369.6,945.84,366.82,945.44Z" transform="translate(0 1)"/><path class="b8672db3-7549-4996-94c4-7842511d5a61" d="M580.27,974.3c-2.64.21-2.8-1.56-3-3.4-.13-1.38.8-3.33-1.74-3.6-.28,0-.43-.75-.17-.76,1.55-.1,1.81-1.14,2.27-2.34.27-.71,1.34-.38,1.35.45,0,1.36.63,1.71,1.84,1.6.45,0,1.15-.07,1,.65s-.7.65-1.2.6c-1.67-.17-1.78,1-1.56,2.06s-1,3,1.34,3.34c.63.08,1.58,0,1.39.92S580.76,974.15,580.27,974.3Z" transform="translate(0 1)"/><path class="fdc59661-d6a9-4881-a14f-bc9d7a5b8399" d="M367.19,967.07c.38-.47.45-.6.48-.59,2,.67,1.85-3.36,2.91-2a4.63,4.63,0,0,0,3.33,2c-.17.37-.22.71-.37.76-1,.38-2.74-.16-2.49,1.88.2,1.6-.91,3.93,2.17,4a.59.59,0,0,1,.58.66c0,.45-.39.45-.7.53a2.68,2.68,0,0,1-3.56-2.63,8.56,8.56,0,0,1,0-1.24C369.61,968.82,369.66,967.23,367.19,967.07Z" transform="translate(0 1)"/><path class="b8672db3-7549-4996-94c4-7842511d5a61" d="M522.79,945.25c1.44-.57,3-.57,2.68-2.32,0-.13.45-.45.72-.5a.69.69,0,0,1,.85.68c0,1.27.47,1.83,1.77,1.66.44-.06,1.14-.12,1.1.6s-.66.69-1.15.64c-1.88-.19-1.77,1.12-1.61,2.27s-.93,3.06,1.54,3.15c.59,0,1.33.07,1.22.86s-.9.5-1.43.53c-2.47.11-3.08-.65-3.16-3.85C525.26,946.45,525.26,946.45,522.79,945.25Z" transform="translate(0 1)"/><path class="e400e380-e443-44a8-9c9a-d7d4d6cba977" d="M384.57,1009.82c1.06-.69,2.47-.5,2.24-2.13-.06-.43.32-.74.81-.76a.63.63,0,0,1,.69.59c0,1.43.76,1.87,2.06,1.72.43,0,.88.06.83.63a.62.62,0,0,1-.72.54c-2-.2-2.19,1-2.07,2.5.1,1.34-.39,3,1.87,3.06.54,0,1,.19.9.87s-.63.39-1,.44c-2.33.25-3.32-.74-3.4-3.41C386.71,1012.22,387.28,1010.29,384.57,1009.82Z" transform="translate(0 1)"/><path class="e9838760-bf41-472a-b66a-01286c3a75f8" d="M406.94,974.3c-2,.14-2.68-.76-2.87-2.63-.15-1.58,1.32-4-1.86-4.42-.22,0-.38-.77,0-.78,1.53-.05,2.13-.78,2.08-2.27,0-.32.5-.35.84-.3a.62.62,0,0,1,.56.7c-.2,1.56.66,1.79,1.93,1.66.37,0,.91-.11,1,.43.12.73-.5.83-1,.77-1.51-.17-2.25.39-1.91,1.94.29,1.3-1.07,3.44,1.73,3.54.59,0,1.35.08,1.14.89S407.44,974.12,406.94,974.3Z" transform="translate(0 1)"/><path class="e400e380-e443-44a8-9c9a-d7d4d6cba977" d="M393,1017c2.7-2.42,3.6-4.9.28-7.4,2.45-1,2.44,1.57,3.72,2,1.12-.61,1.21-2.76,3.65-2-3.4,2.61-2.33,5.07.18,7.38-1.77.92-2.28-.37-2.89-1.25s-1.22-1.11-2,0C395.36,1016.48,394.89,1017.67,393,1017Z" transform="translate(0 1)"/><path class="a67e0272-51a3-4fa0-90b9-812e63f1255c" d="M411.17,948.9c0-3.22,2.58-5.22,5.4-4.17.73.26,1.26.6,1,1.39-.3,1-1,.25-1.37.09a2.14,2.14,0,0,0-2.83.8,3.32,3.32,0,0,0,0,3.55c.64,1.07,1.68,1.17,2.84.82.43-.14,1.09-.88,1.38.11.24.79-.31,1.13-1,1.38A4,4,0,0,1,411.17,948.9Z" transform="translate(0 1)"/><path class="b8672db3-7549-4996-94c4-7842511d5a61" d="M506.59,970.21c0-3.09,2.28-4.88,5.07-4.06.8.24,1.53.53,1.19,1.49s-1,.12-1.42,0a2.2,2.2,0,0,0-2.65.81,3,3,0,0,0-.1,3.51,2.26,2.26,0,0,0,2.82.93c.43-.11,1.12-.9,1.38.14.21.81-.36,1.12-1.09,1.34C508.91,975.26,506.56,973.4,506.59,970.21Z" transform="translate(0 1)"/><path class="b8672db3-7549-4996-94c4-7842511d5a61" d="M515.15,948.71c0-3.08,2.6-5,5.35-4,.7.26,1.29.57,1,1.37-.3,1-1,.26-1.39.11a2.16,2.16,0,0,0-2.82.85,3.36,3.36,0,0,0,0,3.56,2.21,2.21,0,0,0,2.64.82c.48-.11,1.31-1,1.55.2.18,1-.7,1.14-1.45,1.31C517.22,953.58,515.12,951.79,515.15,948.71Z" transform="translate(0 1)"/><path class="f6aaa7ab-ea77-4519-8f8f-d9036f610cca" d="M430,1006.14c2-.39,2.5.33,2.41,1.84-.1,1.74,0,3.49,0,5.23,0,1.35-.08,2.79,2,2.67a.7.7,0,0,1,.75.8c0,.58-.48.53-.88.6-2,.35-3.35-.64-3.51-2.83-.11-1.65,0-3.32-.05-5,0-1,.41-2.3-1.4-2.2a.49.49,0,0,1-.54-.63C429,1005.71,429.89,1006.2,430,1006.14Z" transform="translate(0 1)"/><path class="e400e380-e443-44a8-9c9a-d7d4d6cba977" d="M401.86,1009.7c1.44-.36,2.4-.65,2.41-2.22,0-.8,1.2-.66,1.19-.17,0,2.32,1.82,1.8,3,2.12.08.48,0,.89-.39.86-2.46-.18-2.5,1.35-2.43,3.15,0,1.35,0,2.55,1.86,2.54.49,0,1.1.12,1,.8s-.78.45-1.23.49c-2.3.17-3.07-.57-3.15-3C404.08,1012.49,404.81,1010.36,401.86,1009.7Z" transform="translate(0 1)"/><path class="f0b22221-c442-4fc0-98b7-c36fa97c6cd9" d="M356.88,1009.42c-.39.51-.49.74-.67.86-.73.48-2.11-.41-2.37.77a14.56,14.56,0,0,0,0,4c.06.87.89.82,1.54.94s1.36,0,1.2.84-.93.44-1.46.49c-2.14.18-2.87-.9-3-3-.09-1.42,1.26-3.67-1.68-4.06-.47-.06-.43-.88,0-.89,1.36,0,1.76-.66,1.89-1.94.08-.81,1.24-.6,1.22-.13C353.38,1009.67,355.37,1009.15,356.88,1009.42Z" transform="translate(0 1)"/><path class="e9838760-bf41-472a-b66a-01286c3a75f8" d="M493.79,1012.66c-1.86-.73-3.17-1.27-4.48-1.75-.61-.22-1.15-.52-.95-1.22.24-.85.93-.48,1.43-.29,1.85.72,3.68,1.48,5.52,2.24,1.28.52,1.25,1.45.21,2-2,1-4.12,1.71-6.2,2.52-.4.16-.84.18-1-.37a1,1,0,0,1,.63-1.2C490.4,1014,491.85,1013.42,493.79,1012.66Z" transform="translate(0 1)"/><path class="e9838760-bf41-472a-b66a-01286c3a75f8" d="M326,1012.68l4.42,1.66c.68.26,1.25.71.92,1.48s-1,.19-1.44,0c-1.69-.64-3.36-1.35-5.06-2-.58-.21-1.07-.37-1.14-1.1s.39-1,1-1.2c1.84-.72,3.66-1.49,5.5-2.2.43-.17,1-.41,1.21.32a.92.92,0,0,1-.65,1.16C329.33,1011.34,328,1011.91,326,1012.68Z" transform="translate(0 1)"/><path class="b8672db3-7549-4996-94c4-7842511d5a61" d="M458.12,1017.29a12.61,12.61,0,0,1-1.74,0c-.58-.08-1.52.42-1.61-.59-.06-.8.78-.7,1.32-.73s1.18-.25,1.08-1c-.19-1.42.62-3-.5-4.25-.36-.41-1.69-.07-1.31-1s1.61-.34,2.46-.44,1.05.54,1,1.27c0,1.17,0,2.33,0,3.49s.08,2,1.54,1.94c.54,0,1.06.23,1,.85s-.79.44-1.24.47C459.45,1017.32,458.78,1017.29,458.12,1017.29Z" transform="translate(0 1)"/><path class="ade0c04e-f92c-441f-949c-807252b7d9a0" d="M331.53,952.21a10.42,10.42,0,0,1-7,0c1.85-.46,3.25-1,2.81-3.19-.3-1.45.57-3.37-2.61-3.28,3.5-1.64,4-1.31,4.07,1.7C328.84,949.4,328,951.87,331.53,952.21Z" transform="translate(0 1)"/><path class="ade0c04e-f92c-441f-949c-807252b7d9a0" d="M324.43,974.31c1-1.63,3.15-.63,2.9-2.71-.22-1.8.77-4-2.22-4.73,3.37-1.13,3.69-.93,3.71,1.88,0,.83,0,1.66,0,2.49,0,1,.1,1.84,1.38,1.89.47,0,1.14,0,1,.72s-.79.44-1.24.44C328.29,974.32,326.6,974.31,324.43,974.31Z" transform="translate(0 1)"/><path class="e9838760-bf41-472a-b66a-01286c3a75f8" d="M480.68,1018.73c-1-.17-.6-.85-.39-1.31,1.55-3.36,3.17-6.7,4.73-10.06.34-.73.85-1.1,1.56-.73s.15.91,0,1.3c-1.52,3.29-3.07,6.56-4.62,9.84C481.69,1018.29,481.45,1018.86,480.68,1018.73Z" transform="translate(0 1)"/><path class="b8672db3-7549-4996-94c4-7842511d5a61" d="M498.11,975.77c-1.06-.08-.9-.59-.61-1.2q2.37-5,4.7-10.1c.31-.68.82-1.18,1.54-.86s.18,1,0,1.46c-1.45,3.14-2.94,6.27-4.39,9.42C499,975.1,498.83,975.74,498.11,975.77Z" transform="translate(0 1)"/><path class="b8672db3-7549-4996-94c4-7842511d5a61" d="M593.49,975.75c-.65,0-1-.28-.75-.88,1.68-3.68,3.39-7.34,5.16-11a1,1,0,0,1,1.34-.23c.56.33.12.73,0,1.05q-2.33,5.07-4.69,10.11C594.33,975.26,594.11,975.76,593.49,975.75Z" transform="translate(0 1)"/><path class="b8672db3-7549-4996-94c4-7842511d5a61" d="M490.21,948.69v-.5c0-3,1.74-4.33,4.72-3.63.63.15,1.37.29,1.22,1.23s-.88.47-1.37.43c-2.62-.26-2.6,1.54-2.81,3.36-.13,1.08.79,3.09-.83,3.06-1.94,0-.5-2.12-.92-3.21A2.28,2.28,0,0,1,490.21,948.69Z" transform="translate(0 1)"/><path class="fdc59661-d6a9-4881-a14f-bc9d7a5b8399" d="M447,948.82a4.21,4.21,0,0,1,0-.5c.13-1.12-.44-3.08.35-3.21a15.49,15.49,0,0,1,4.21-.44c.62.07,1.2.3,1.09,1.06s-.69.46-1.16.4c-2.49-.29-2.82,1.32-3,3.25-.09,1.13.59,3.24-.67,3.2-1.76-.06-.47-2.14-.84-3.26A1.66,1.66,0,0,1,447,948.82Z" transform="translate(0 1)"/><path class="fdc59661-d6a9-4881-a14f-bc9d7a5b8399" d="M447,970.15c0-.17,0-.34,0-.5.11-1-.24-3,.26-3,1.54,0,3-.83,4.47-.47.52.12,1,.32.94,1,0,.81-.6.57-1.08.51-2.68-.37-2.89,1.39-3.08,3.38-.1,1.08.78,3.08-.82,3.05-1.31,0-.43-2.06-.68-3.18A3.64,3.64,0,0,1,447,970.15Z" transform="translate(0 1)"/><path class="f9405a28-8a6f-4dba-a6cb-df6f96bd76d6" d="M362,966.6c.87,0,1.91-.81,3.09-.4.53.19.94.43.88,1s-.49.54-.93.45c-2.78-.52-3.13,1.25-3.34,3.37-.11,1.07.82,3.06-.79,3-1.3,0-.51-2.07-.65-3.21a22.78,22.78,0,0,1,0-3C360.25,966.87,360.31,965.94,362,966.6Z" transform="translate(0 1)"/><path class="f9405a28-8a6f-4dba-a6cb-df6f96bd76d6" d="M360.24,948.78a4.17,4.17,0,0,1,0-.5c.17-1.11-.45-3.11.42-3.17,1.42-.11,2.83-.75,4.28-.42.52.12,1,.28,1,.89,0,.79-.49.67-1,.58-2.83-.45-3.06,1.4-3.25,3.48-.1,1,.71,3-.64,3-1.61,0-.51-2-.83-3.07A2.6,2.6,0,0,1,360.24,948.78Z" transform="translate(0 1)"/><path class="e9838760-bf41-472a-b66a-01286c3a75f8" d="M649.34,973.35c-.65.95-.33,2.77-2.25,2.95-.76.08-1.25-.4-.74-1,1-1.15-1-3.7,1.88-3.86C649.55,971.36,649.32,972.38,649.34,973.35Z" transform="translate(0 1)"/><path class="e9838760-bf41-472a-b66a-01286c3a75f8" d="M545.36,951.84c-.59,1-.34,2.72-2.19,3-.71.09-1.33-.31-.81-1,.94-1.18-.9-3.67,1.85-3.9C545.51,949.84,545.37,950.81,545.36,951.84Z" transform="translate(0 1)"/><path class="fdc59661-d6a9-4881-a14f-bc9d7a5b8399" d="M414.46,1010.17c1.15.47,3.36-.63,3.37.73,0,1.55-2.17.77-3.32.72s-3.6,1-3.7-.78C410.75,1009.6,413.19,1010.62,414.46,1010.17Z" transform="translate(0 1)"/><path class="af90ff16-d248-421f-a222-22c4d0db532e" d="M414.13,1015c-1.12-.53-3.18.74-3.3-.81-.09-1.06,2.1-.52,3.23-.49,1.3,0,3.73-.65,3.68.53C417.69,1015.66,415.39,1014.48,414.13,1015Z" transform="translate(0 1)"/><path class="ea44b806-e531-43c2-824d-8ababcf19e25" d="M471.63,1008.57c.43-.73-.72-2.23,1-2.29s1,1.44,1,2.23.71,2.26-1,2.21C471.05,1010.68,472,1009.33,471.63,1008.57Z" transform="translate(0 1)"/><path class="ea44b806-e531-43c2-824d-8ababcf19e25" d="M421.74,1008.5c-.37.78.59,2.31-1.13,2.21s-.8-1.54-.85-2.36-.68-2.06.87-2.08C422.37,1006.25,421.35,1007.74,421.74,1008.5Z" transform="translate(0 1)"/><path class="ea44b806-e531-43c2-824d-8ababcf19e25" d="M486.26,965.38c-.39.92.56,2.44-1.16,2.36s-.81-1.54-.86-2.35-.68-2,.86-2.09C487,963.23,485.69,964.82,486.26,965.38Z" transform="translate(0 1)"/><path class="ea44b806-e531-43c2-824d-8ababcf19e25" d="M538.19,944c-.35.78.65,2.27-1,2.3s-.93-1.46-.94-2.25-.74-2.26,1-2.19C538.78,941.88,537.87,943.21,538.19,944Z" transform="translate(0 1)"/><path class="ea44b806-e531-43c2-824d-8ababcf19e25" d="M642.21,965.43c-.34,1,.52,2.47-1.22,2.31s-.72-1.59-.79-2.41-.64-2.06.93-2C642.94,963.32,641.63,964.88,642.21,965.43Z" transform="translate(0 1)"/><path class="ea44b806-e531-43c2-824d-8ababcf19e25" d="M486.2,944.07c-.29.82.57,2.35-1.17,2.18s-.72-1.59-.79-2.41-.65-2.07.92-2C486.9,941.85,485.82,943.32,486.2,944.07Z" transform="translate(0 1)"/><path class="e9838760-bf41-472a-b66a-01286c3a75f8" d="M545.21,946.09c.09.94,0,1.59-1.24,1.55s-1.3-.62-1.31-1.57.19-1.33,1.2-1.34S545.41,945,545.21,946.09Z" transform="translate(0 1)"/><path class="e9838760-bf41-472a-b66a-01286c3a75f8" d="M649.19,967.5c0,.89.09,1.67-1.19,1.62-1.09,0-1.39-.51-1.36-1.51,0-.82.07-1.4,1.14-1.39S649.41,966.36,649.19,967.5Z" transform="translate(0 1)"/><path class="ea44b806-e531-43c2-824d-8ababcf19e25" d="M493.21,972.82c.12.95-.11,1.49-1.27,1.52-1.35,0-1.38-.69-1.41-1.69s.41-1.38,1.45-1.39C493.2,971.24,493.3,971.9,493.21,972.82Z" transform="translate(0 1)"/><path class="ea44b806-e531-43c2-824d-8ababcf19e25" d="M482.37,965.54c-.32.77.53,2.14-.9,2.18-1.66,0-.9-1.45-.94-2.25s-.61-2.1.8-2.14C483,963.29,482,964.82,482.37,965.54Z" transform="translate(0 1)"/><path class="ea44b806-e531-43c2-824d-8ababcf19e25" d="M638.39,965.48c-.39.87.47,2.26-1,2.24-1.64,0-.86-1.48-.91-2.29s-.6-2.1.85-2.1C639.09,963.32,637.75,964.92,638.39,965.48Z" transform="translate(0 1)"/><path class="ea44b806-e531-43c2-824d-8ababcf19e25" d="M425.38,1008.51c-.31.78.51,2.15-.9,2.18-1.66,0-.9-1.45-.94-2.25s-.6-2.09.8-2.13C426.06,1006.26,425,1007.8,425.38,1008.51Z" transform="translate(0 1)"/><path class="ea44b806-e531-43c2-824d-8ababcf19e25" d="M532.41,944.06c.4-.72-.66-2.25,1-2.21,1.41,0,.84,1.39.8,2.12s.76,2.29-.92,2.26C531.91,946.21,532.72,944.84,532.41,944.06Z" transform="translate(0 1)"/><path class="ea44b806-e531-43c2-824d-8ababcf19e25" d="M480.43,944c.39-.72-.65-2.26,1.05-2.19,1.41.06.82,1.41.78,2.15s.75,2.29-.94,2.23C479.92,946.18,480.73,944.82,480.43,944Z" transform="translate(0 1)"/><path class="ea44b806-e531-43c2-824d-8ababcf19e25" d="M477.43,1008.32c-.47.86.6,2.38-1.07,2.37-1.4,0-.89-1.36-.84-2.1s-.74-2.28.92-2.29S476.9,1007.74,477.43,1008.32Z" transform="translate(0 1)"/><line class="b3315d06-9255-4006-8f2c-09e2a9cc6553" x1="401.57" y1="1028.98" x2="593.5" y2="1052.5"/><text class="a573ef61-58d3-40c4-bc44-7c258d55d7bb" transform="matrix(1, 0, 0, 1, 603.08, 1051.71)">p<tspan class="fd600192-7656-426f-aeaa-e9432e381e31" x="8.98" y="0">r</tspan><tspan x="14.23" y="0">opiedades</tspan></text><rect class="a14d77e6-83f7-4b69-bdc1-f63601c0ad25" x="596" y="347" width="16.94" height="17.47"/><rect class="a14d77e6-83f7-4b69-bdc1-f63601c0ad25" x="659" y="476" width="16.94" height="17.47" transform="translate(538.26 -329) rotate(45)"/><rect class="afe2c440-e566-46ff-ab0d-8acb16719b7e" x="686" y="477" width="16.94" height="17.47" rx="6.35"/><rect class="a14d77e6-83f7-4b69-bdc1-f63601c0ad25" x="713" y="477" width="16.94" height="17.47"/><rect class="a14d77e6-83f7-4b69-bdc1-f63601c0ad25" x="766" y="482.16" width="6.94" height="7.15"/><rect class="e4ae1ed1-9cfd-46b1-9c54-8444cd7d6699" x="740" y="477" width="16.94" height="17.47"/><rect class="a14d77e6-83f7-4b69-bdc1-f63601c0ad25" x="619.71" y="347" width="16.94" height="17.47"/><rect class="a14d77e6-83f7-4b69-bdc1-f63601c0ad25" x="642.06" y="347" width="16.94" height="17.47"/><rect class="a14d77e6-83f7-4b69-bdc1-f63601c0ad25" x="596" y="367.27" width="40.65" height="17.47"/><rect class="a14d77e6-83f7-4b69-bdc1-f63601c0ad25" x="642.06" y="367.27" width="16.94" height="37.73"/><rect class="a14d77e6-83f7-4b69-bdc1-f63601c0ad25" x="596" y="387.53" width="40.65" height="17.47"/><line class="a1bdcfc6-f24a-496b-827e-145123adbb52" x1="748" y1="993.48" x2="742" y2="993.48"/><line class="a7a6609b-467b-46ef-9e69-67d395551b74" x1="730.05" y1="993.48" x2="162.35" y2="993.48"/><line class="a1bdcfc6-f24a-496b-827e-145123adbb52" x1="156.37" y1="993.48" x2="150.37" y2="993.48"/><line class="a1bdcfc6-f24a-496b-827e-145123adbb52" x1="748" y1="648.98" x2="742" y2="648.98"/><line class="a7a6609b-467b-46ef-9e69-67d395551b74" x1="730.05" y1="648.98" x2="162.35" y2="648.98"/><line class="a1bdcfc6-f24a-496b-827e-145123adbb52" x1="156.37" y1="648.98" x2="150.37" y2="648.98"/><line class="a1bdcfc6-f24a-496b-827e-145123adbb52" x1="748" y1="792.98" x2="742" y2="792.98"/><line class="a7a6609b-467b-46ef-9e69-67d395551b74" x1="730.05" y1="792.98" x2="162.35" y2="792.98"/><line class="a1bdcfc6-f24a-496b-827e-145123adbb52" x1="156.37" y1="792.98" x2="150.37" y2="792.98"/><path class="fb1f4f13-962a-4e0e-99d7-41cd0dfddf76" d="M485.08,823.87q0-3,0-6c0-.67,0-1.32.92-1.39s1.21.55,1.21,1.39c0,2.94,0,5.87,0,8.8,0,.74.05,1.5-1.05,1.57a1.77,1.77,0,0,1-2-1A30.31,30.31,0,0,0,480.5,821c0,1.77,0,3.54,0,5.31,0,.75.3,1.82-1,1.88-1.6.08-1-1.21-1.07-2-.06-2.66,0-5.32,0-8,0-.68-.29-1.58.8-1.75a1.79,1.79,0,0,1,2.22,1.11c1,2.15,2,4.26,3.05,6.39Z" transform="translate(0 1)"/><path class="fb1f4f13-962a-4e0e-99d7-41cd0dfddf76" d="M398.88,680.93c0-1.83,0-3.66,0-5.49,0-.75-.34-1.81,1-1.88s1.14.9,1.14,1.72c0,2.75,0,5.5,0,8.25,0,.67.25,1.56-.83,1.74a1.8,1.8,0,0,1-2.26-1c-.93-2.09-2-4.13-3.13-6.56-.84,2.1-.27,4-.46,5.74-.08.76.25,1.8-1.05,1.83s-1-1.07-1-1.79c-.05-2.56-.07-5.13,0-7.7,0-.79-.56-1.94.85-2.24s1.94.6,2.43,1.67c.9,2,1.85,3.91,2.78,5.86Z" transform="translate(0 1)"/><path class="fb1f4f13-962a-4e0e-99d7-41cd0dfddf76" d="M475.64,728.77c0-2.1,0-4.21,0-6.31,0-.63-.12-1.38.83-1.44s1.11.72,1.11,1.48c0,2.85,0,5.69,0,8.53,0,.67.26,1.56-.86,1.71a1.82,1.82,0,0,1-2.2-1.15c-.88-2-1.88-3.91-3.15-6.5-.79,2.47-.35,4.34-.5,6.15-.06.72.05,1.56-1.08,1.49s-.8-.86-.81-1.45c0-2.84,0-5.69,0-8.53,0-.68-.27-1.57.82-1.75a1.81,1.81,0,0,1,2.16,1.21c1,2.24,2.12,4.43,3.2,6.64Z" transform="translate(0 1)"/><path class="aeeff375-3b07-4f8f-9968-7d89d6071b94" d="M411.66,637c-1.48.69-2.24.17-2.73-1-.31-.75-.72-1.47-1.08-2.2a2.16,2.16,0,0,0-2.27-1.24c-1.18.18-.55,1.34-.67,2.07a8.25,8.25,0,0,0,0,1.65c0,.86-.47,1.07-1.23,1.06s-.9-.46-.9-1.08c0-3.21,0-6.41,0-9.62,0-.33.16-.89.35-.94,2.09-.54,4.27-.62,6,.69a2.91,2.91,0,0,1,.47,4.58c-.78.86-.56,1.23-.1,2C410.33,634.24,411,635.64,411.66,637Zm-6.75-8c-.08,1-.15,1.88,1.3,1.76,1.09-.1,2-.29,2.05-1.64.06-1.51-.94-1.78-2.12-1.9C404.6,627,405,628.14,404.91,629Z" transform="translate(0 1)"/><path class="a9a83746-76f5-400a-b950-9dea47a7136e" d="M345,632.72v-.55c0-4.08,0-4.14,4-3.58,1.28.18,3.11-1.34,3.77.79.73,2.38.48,4.9.29,7.36,0,.46-.47.56-.83.47-.55-.14-.54-.66-.55-1.11-.05-1.64,0-3.29-.13-4.94,0-.49-.14-1.17-.9-1.08-.54.06-.66.62-.68,1-.09,1.55-.08,3.11-.15,4.66,0,.57.22,1.47-.78,1.42s-.68-.92-.71-1.5c-.08-1.55-.07-3.11-.16-4.66,0-.42-.18-.94-.79-.93s-.72.57-.75,1c-.09,1.64-.09,3.29-.15,4.93,0,.52.07,1.21-.72,1.21s-.74-.67-.76-1.19c0-1.1,0-2.2,0-3.3Z" transform="translate(0 1)"/><path class="fb1f4f13-962a-4e0e-99d7-41cd0dfddf76" d="M488.83,728.36c0-4.26.06-3.79,4.58-4.44,3.6-.52,3.61,1.31,3.74,3.6.08,1.28,0,2.57,0,3.85,0,.64,0,1.38-.94,1.31-.79-.07-.66-.75-.68-1.26,0-1.56,0-3.11-.09-4.67,0-.55-.22-1.2-.86-1.19s-.68.75-.7,1.26c-.05,1.47,0,2.93-.07,4.4,0,.61.11,1.43-.8,1.46s-.79-.81-.81-1.4c0-1.28,0-2.57-.06-3.85,0-.7,0-1.75-.85-1.79-1.07,0-.71,1.07-.75,1.71-.09,1.37,0,2.75-.06,4.12,0,.54,0,1.17-.76,1.23-1,.08-.88-.71-.89-1.32C488.81,730.37,488.83,729.36,488.83,728.36Z" transform="translate(0 1)"/><path class="fdc59661-d6a9-4881-a14f-bc9d7a5b8399" d="M488.83,633v-.82c0-4,0-4.09,4-3.58,1.28.16,3.09-1.35,3.8.81.79,2.38.54,4.89.3,7.36,0,.38-.45.54-.85.46-.63-.13-.54-.67-.55-1.09-.05-1.55,0-3.12-.08-4.67,0-.62-.09-1.42-1-1.34-.7.07-.65.81-.67,1.32-.06,1.38,0,2.76-.08,4.13,0,.66.24,1.68-.89,1.63-.95,0-.62-1-.65-1.53-.06-1.19,0-2.39-.06-3.58,0-.75.18-1.93-1-1.89-1,0-.67,1.13-.71,1.79-.08,1.28,0,2.57-.06,3.85,0,.61.09,1.45-.86,1.4s-.67-.93-.7-1.5C488.79,634.81,488.83,633.89,488.83,633Z" transform="translate(0 1)"/><path class="a160de7e-5e71-464a-9776-1ddaf7966dfc" d="M613.94,729.79V727.6c0-3.81,0-3.81,3.82-3.94,2.28-.08,3.79,1.82,3.76,4.75s-1.38,4.67-3.91,4.47c-1.38-.1-1.82.16-1.76,1.5,0,.67.21,1.64-.9,1.64-1.31,0-1-1.1-1-1.84C613.9,732.72,613.94,731.25,613.94,729.79Zm2-1.38c.08,1.24,0,3,1.93,2.88,1.72-.06,1.71-1.7,1.7-3s0-3.11-1.92-3C616,725.37,616,727,615.91,728.41Z" transform="translate(0 1)"/><path class="a160de7e-5e71-464a-9776-1ddaf7966dfc" d="M585.21,729.93a8.7,8.7,0,0,1,0-2.45c.36-1.21-1.35-3.31,1.48-3.53,4.27-.32,5.43.26,6,3.22.63,3.45-.8,5.33-4.49,5.61-1.21.08-1,.78-1.07,1.46s.29,1.88-1,1.77-.83-1.22-.87-2C585.16,732.68,585.21,731.31,585.21,729.93Zm2-1.64c.1,1.24-.1,3,1.83,3,1.76,0,1.8-1.59,1.8-2.85s.07-3.11-1.81-3.14C587.31,725.27,587.23,726.85,587.17,728.29Z" transform="translate(0 1)"/><path class="a341b009-692f-4035-8976-81a83ff97da5" d="M527.63,726.54c0-1.56,0-3.11,0-4.67,0-.62-.12-1.35.86-1.39s1,.63,1,1.3c-.11,1.53,0,2.27,2.08,1.92,2.28-.4,3.92,2.08,3.72,5s-1.71,4.27-4.19,4.31c-3,0-4-1.15-3.45-4A13.57,13.57,0,0,0,527.63,726.54Zm5.57,1.8c0-1.42,0-3.08-1.9-3-1.65.06-1.75,1.74-1.73,3s0,3.09,2,3C533.26,731.21,533.17,729.63,533.2,728.34Z" transform="translate(0 1)"/><path class="fdc59661-d6a9-4881-a14f-bc9d7a5b8399" d="M391,726.65a8.39,8.39,0,0,1-.05,2.46c-.37,1.21,1.37,3.32-1.43,3.56-4.27.35-5.4-.28-5.88-3.32-.56-3.54.73-5.26,4.39-5.46,1.6-.08,1.09-1.12,1.22-1.91.1-.6-.13-1.42.86-1.41s.87.77.88,1.4C391,723.53,391,725.09,391,726.65Zm-5.72,1.73c.27,1.33.18,3.11,2.07,3s1.9-1.83,1.9-3.17-.18-3.07-2-3S385.52,727.08,385.27,728.38Z" transform="translate(0 1)"/><path class="a160de7e-5e71-464a-9776-1ddaf7966dfc" d="M498.9,682.45v-2.19c0-4.06,0-4.06,3.92-4.07,2.15,0,3.59,1.83,3.63,4.63,0,3-1.34,4.76-4.07,4.58-1.5-.1-1.72.43-1.7,1.64,0,.66.24,1.64-1,1.52s-.77-1.07-.79-1.71C498.86,685.39,498.9,683.92,498.9,682.45Zm5.58-1.6c0-1.42-.08-3.07-1.92-3-1.61,0-1.8,1.68-1.82,2.93s.1,3.1,1.87,3.15S504.44,682.24,504.48,680.85Z" transform="translate(0 1)"/><path class="a160de7e-5e71-464a-9776-1ddaf7966dfc" d="M470.17,682.46v-2.2c0-4,0-4,3.92-4.07,2.15,0,3.59,1.82,3.63,4.63,0,3-1.35,4.76-4.06,4.58-1.5-.1-1.73.41-1.72,1.63,0,.66.25,1.64-1,1.53s-.77-1.06-.79-1.71C470.13,685.39,470.17,683.92,470.17,682.46Zm5.58-1.52c0-1.4,0-3.1-1.83-3.11s-1.9,1.77-1.91,3.1.17,2.89,1.78,3C475.67,684,475.7,682.34,475.75,680.94Z" transform="translate(0 1)"/><path class="a9a83746-76f5-400a-b950-9dea47a7136e" d="M410.12,822.11v2.47c0,3.81,0,3.81-3.84,3.79-2.12,0-3.44-1.65-3.52-4.38-.08-3,1.29-5,3.68-4.71,1.68.17,2.15-.23,2-1.78-.05-.61-.12-1.44.81-1.44,1.19,0,.82,1,.85,1.65C410.15,819.17,410.11,820.64,410.12,822.11Zm-1.72,1.76c-.07-1.37,0-3.08-1.81-3.17-2-.09-2.09,1.69-2.1,3.16s.19,3,2,3S408.31,825.26,408.4,823.87Z" transform="translate(0 1)"/><path class="fdc59661-d6a9-4881-a14f-bc9d7a5b8399" d="M362.71,632.57c0,3.45-1.2,4.78-4.21,4.76-1.39,0-1.46.6-1.5,1.62,0,.63.32,1.67-.88,1.58s-.81-1-.82-1.72c0-2.46-.11-4.93,0-7.39.05-1-.86-2.81,1-2.87,2.05-.07,4.73-1.35,5.89,1.74A13.53,13.53,0,0,1,362.71,632.57Zm-1.81.28c-.11-1.4-.09-3.12-1.95-3.09S357,631.5,357,632.88s.21,3.08,2,3.07S360.79,634.2,360.9,632.85Z" transform="translate(0 1)"/><path class="fdc59661-d6a9-4881-a14f-bc9d7a5b8399" d="M355.29,825.25v-2.2c0-3.78,0-3.78,3.81-3.86,2.24,0,3.57,1.65,3.6,4.56s-1.24,4.75-3.77,4.55c-1.81-.14-2,.59-1.93,2,0,.52.06,1.17-.73,1.21s-1-.66-1-1.31c0-1.65,0-3.29,0-4.93Zm5.61-1.39c-.11-1.36,0-3.09-1.86-3.15s-2,1.63-2,3,.17,3.08,1.9,3.17S360.78,825.26,360.9,823.86Z" transform="translate(0 1)"/><path class="fb1f4f13-962a-4e0e-99d7-41cd0dfddf76" d="M498.32,823.45a7,7,0,0,0,0-1.37c-.63-2.78,1.25-2.91,3.12-2.88.87,0,1.65.43,2.62.08,1.5-.54,2.32.5,2.44,1.8.18,2,.11,4,.13,6,0,.58-.12,1.12-.9,1s-.73-.68-.74-1.22c0-1.46,0-2.93,0-4.39,0-.7.13-1.75-.83-1.7s-.78,1.08-.79,1.81c0,1.46,0,2.93,0,4.39,0,.56-.06,1.15-.84,1.13s-.79-.63-.8-1.17c0-1.65,0-3.3,0-5,0-.56-.22-1.14-.93-1-.54.07-.64.6-.64,1.06,0,1.65,0,3.3-.06,4.95,0,.56-.06,1.14-.83,1.15s-.8-.61-.81-1.15c0-1.19,0-2.39,0-3.58Z" transform="translate(0 1)"/><path class="fb1f4f13-962a-4e0e-99d7-41cd0dfddf76" d="M412.12,680.85V680c0-4,0-4,4.13-3.51s4.27.46,4.13,4.87c0,1.27,1,3.65-.81,3.64s-.47-2.41-.8-3.71.64-3.3-.82-3.3-.56,2.14-.84,3.3.83,3.71-.81,3.71-.49-2.37-.86-3.65c-.32-1.11.73-3.13-.93-3.16-1.28,0-.45,2-.72,3.08-.32,1.31.81,3.72-.8,3.73-1.79,0-.48-2.37-.86-3.63A2,2,0,0,1,412.12,680.85Z" transform="translate(0 1)"/><path class="fb1f4f13-962a-4e0e-99d7-41cd0dfddf76" d="M448.6,729.45c-.24.92.51,3-.48,3-1.84.11-3.76,1.06-5.62.16a2.89,2.89,0,0,1,.2-5.13,18,18,0,0,1,1.86-.42c.64-.19,1.83.15,1.75-.84-.1-1.17-1.25-1.1-2.19-1-.27,0-.53.17-.8.21-.57.07-1.35.65-1.59-.34-.2-.77.42-1,1.11-1.26,3.31-1.11,5.69.5,5.76,4C448.61,728.32,448.6,728.78,448.6,729.45Zm-4,2a2.44,2.44,0,0,0,2.08-2.17c.2-1.07-.64-.92-1.21-.88-1.08.07-2.28.1-2.45,1.56C442.9,731.07,443.75,731.28,444.6,731.47Z" transform="translate(0 1)"/><path class="a341b009-692f-4035-8976-81a83ff97da5" d="M544.49,634.05c0,3.44-.24,3.7-4.62,3.52a2.71,2.71,0,0,1-2.89-3.21c.13-2.22,1.71-2.48,3.42-2.78.67-.12,2,.38,1.9-.82-.1-1-1.26-1.16-2.24-1a9.68,9.68,0,0,1-1.06.27c-.47,0-1.11.57-1.37-.26s.15-1.1.89-1.39c3.12-1.2,5.75.4,6,3.71C544.52,632.77,544.49,633.41,544.49,634.05Zm-4.08,1.9a2.21,2.21,0,0,0,2.09-2.12c.09-1-.66-1-1.28-.88-1.08.13-2.31.25-2.46,1.62C538.65,635.64,539.67,635.74,540.41,636Z" transform="translate(0 1)"/><path class="fb1f4f13-962a-4e0e-99d7-41cd0dfddf76" d="M410.39,682.1c-.28.89.59,2.87-.64,2.94-1.9.11-4,1.24-5.84-.06a2.9,2.9,0,0,1,.58-5,15.63,15.63,0,0,1,1.88-.39c.63-.18,1.81.2,1.73-.82s-1.24-1-2.18-1-2.22,1.28-2.41-.27,1.63-1.23,2.58-1.32C409.24,675.9,410.39,677.5,410.39,682.1ZM406.9,681c-1,.13-2.19.29-2.26,1.73a1.38,1.38,0,0,0,1.54,1.29,2,2,0,0,0,2.13-2.05C408.39,681,407.71,680.94,406.9,681Z" transform="translate(0 1)"/><path class="fb1f4f13-962a-4e0e-99d7-41cd0dfddf76" d="M496.59,824.81c-.23,1,.53,3-.49,3.1-1.88.22-3.92,1.19-5.84.08a2.65,2.65,0,0,1-1.26-2.84,3,3,0,0,1,2.29-2.45c1-.34,3.07.4,2.89-1.06s-2-.89-3.22-.61c-.51.11-1.18.38-1.34-.41s.46-1,1.13-1.26C494.49,818.09,496.58,820,496.59,824.81Zm-3.48-.94c-1,.14-2.24.32-2.27,1.76,0,.83.81,1.28,1.57,1.27a2,2,0,0,0,2.09-2.08C494.57,823.84,493.86,823.88,493.11,823.87Z" transform="translate(0 1)"/><path class="fdc59661-d6a9-4881-a14f-bc9d7a5b8399" d="M439.05,825c-.26.9.55,2.89-.62,3-1.82.09-3.75,1.11-5.57,0a2.66,2.66,0,0,1-1.3-2.56,2.57,2.57,0,0,1,1.81-2.5,14.71,14.71,0,0,1,2.14-.39c.58-.11,1.45.08,1.37-.88-.06-.78-.78-.93-1.43-1-.36,0-.72.07-1.09.07-.72,0-1.79,1-2.07-.14s1.07-1.22,1.92-1.35C437.79,818.69,439.05,820.16,439.05,825Zm-3.5-1.15c-1.11.11-2.24.38-2.22,1.78a1.47,1.47,0,0,0,1.75,1.32,2.07,2.07,0,0,0,2-2.14C437.16,823.66,436.25,823.93,435.55,823.86Z" transform="translate(0 1)"/><path class="bc64c3d6-ea58-4d26-9165-7eaa3ad929e6" d="M417.07,637.57a4.72,4.72,0,0,1-1.29-9.31,3.49,3.49,0,0,1,4.08,2c1,2.14.72,2.64-1.73,2.67a9.06,9.06,0,0,0-1.65,0c-.75.15-2-.66-2.11.91-.07,1.4,1,1.89,2.13,2,.52.07,1.1-.28,1.61-.2s1.39-1.26,1.73.16c.26,1.14-.59,1.37-1.5,1.46C417.89,637.4,417.44,637.51,417.07,637.57ZM414,631.74c1.75-.32,3.05.41,4.08-.55.45-.41-.23-1-.72-1.21C416,629.26,415.13,630,414,631.74Z" transform="translate(0 1)"/><path class="a341b009-692f-4035-8976-81a83ff97da5" d="M531.84,636a3.44,3.44,0,0,1,1.11-.23c.61.09,1.44-1.1,1.78.13s-.79,1.36-1.69,1.54c-3.18.62-5.39-.78-5.86-3.72a4.56,4.56,0,0,1,3.67-5.49,3.94,3.94,0,0,1,4.42,3.49c.07.77-.09,1.25-1,1.26a20.86,20.86,0,0,0-2.74,0c-.83.12-2.29-.68-2.24,1.06C529.38,635.56,530.63,635.84,531.84,636Zm-.69-4.29c.65-.23,1.83.46,1.87-.81,0-.81-.88-1.14-1.61-1.16s-1.81.38-1.88,1.24C529.45,632.06,530.56,631.46,531.15,631.67Z" transform="translate(0 1)"/><path class="bc64c3d6-ea58-4d26-9165-7eaa3ad929e6" d="M427.7,631.35c-1.06-2-2.37-1.7-3.77-1.31-.4.12-1.07.71-1.31-.2-.18-.67,0-1.11.82-1.42,3.25-1.25,5.82.44,5.87,4v.82c0,4.28-.47,4.76-4.72,4.36a2.63,2.63,0,0,1-2.67-2.6,2.66,2.66,0,0,1,2.28-3.19C425.25,631.57,426.33,631.51,427.7,631.35Zm-1.52,1.53c-1,.25-2.41.12-2.47,1.82,0,1,.85,1.25,1.49,1.27a2.28,2.28,0,0,0,2.35-2.21C427.74,632.72,426.88,632.94,426.18,632.88Z" transform="translate(0 1)"/><path class="a9a83746-76f5-400a-b950-9dea47a7136e" d="M705.21,724.06c.83-1.18-.63-3.3,1.21-3.28,1.41,0,.61,2,.7,3.05.13,1.64,0,3.3,0,4.95,0,4.31,0,4.31-4.07,4.11-2.32-.11-3.56-2.19-3.21-5.4s1.68-4,4.86-3.46A4.4,4.4,0,0,0,705.21,724.06Zm-3.66,4.31c.09,1.44.13,3.11,2,3.07s1.94-1.68,2-3.07-.17-3.08-1.87-3.15C701.58,725.14,701.65,727,701.55,728.37Z" transform="translate(0 1)"/><path class="fb1f4f13-962a-4e0e-99d7-41cd0dfddf76" d="M485.08,726.73c-.94-1.72-2.07-1.64-3.31-1.32-.56.14-1.36.6-1.6-.32s.64-1.09,1.36-1.27c3.3-.83,5.17.57,5.23,3.93,0,.37,0,.74,0,1.1,0,3.56-1.5,4.77-5.08,4.09a2.9,2.9,0,0,1-.34-5.59A33.25,33.25,0,0,1,485.08,726.73Zm-1.49,1.66c-1,.2-2.24.15-2.36,1.65-.08,1.11.82,1.41,1.64,1.37a2.19,2.19,0,0,0,2.09-2.14C485.1,728.25,484.26,728.45,483.59,728.39Z" transform="translate(0 1)"/><path class="fb1f4f13-962a-4e0e-99d7-41cd0dfddf76" d="M508.19,823.77c0-2.37.88-4.1,3.43-4.56a3.5,3.5,0,0,1,4.2,2.27c.5,1.25.72,2.63-1.48,2.4a9,9,0,0,0-2.2,0c-.71.1-1.9-.51-2,.66a2.07,2.07,0,0,0,2,2.25,10.75,10.75,0,0,0,2.16-.21c.55-.06,1.34-.71,1.51.37.12.75-.52,1-1.19,1.27C511.07,829.42,508.18,827.41,508.19,823.77Zm4.41-1.06c.28-.58,1.58.55,1.47-.8a1.57,1.57,0,0,0-1.84-1.29c-.73,0-1.63.33-1.65,1.15C510.56,823.1,511.77,822.42,512.6,822.71Z" transform="translate(0 1)"/><path class="fb1f4f13-962a-4e0e-99d7-41cd0dfddf76" d="M503.49,733c-3,.07-4.82-1.5-5.06-4.22a4.43,4.43,0,0,1,3.6-5,3.4,3.4,0,0,1,3.62,1.4c.58.83,1.18,1.84.72,2.8s-1.48.38-2.26.46a12.6,12.6,0,0,0-1.38,0c-.77.17-2.07-.61-2.15.89s1.09,2,2.37,2.12c.18,0,.37-.08.55,0,.84.12,2.22-1.32,2.43.16C506.2,733.36,504.12,732.42,503.49,733Zm-.92-5.82c.63-.19,1.72.35,1.73-.75s-.94-1.32-1.79-1.28-1.81.53-1.74,1.41S501.94,727,502.57,727.18Z" transform="translate(0 1)"/><path class="ed72b6b1-ed28-42a5-9dc4-47786d1f1e89" d="M355.26,680.78V680c0-3.75,0-3.79,4.22-3.73,2.53,0,2.81,1.93,2.88,3.86.05,1.37,0,2.75,0,4.13,0,.59-.12,1.08-.89,1.08s-.87-.5-.88-1.08c0-1.56,0-3.13-.14-4.68-.06-.84-.41-1.7-1.46-1.69a1.62,1.62,0,0,0-1.67,1.53c-.15,1.55-.2,3.11-.28,4.66,0,.67-.05,1.32-1,1.25s-.77-.66-.78-1.19C355.25,683,355.27,681.88,355.26,680.78Z" transform="translate(0 1)"/><path class="fb1f4f13-962a-4e0e-99d7-41cd0dfddf76" d="M426.35,684a2.27,2.27,0,0,1,.75-.12c.76.15,1.94-1.3,2.2.14.29,1.63-1.43,1.37-2.39,1.48-3,.34-4.76-1.15-5.06-4.05s1.16-4.9,3.65-5.19a3.55,3.55,0,0,1,3.73,1.76c1.2,2,.7,2.9-1.67,2.94a6.94,6.94,0,0,0-1.37,0c-.83.19-2.16-.67-2.37.94C423.7,682.91,425,683.93,426.35,684Zm-2.58-4.45c1.54.1,2.89.71,4-.39.32-.33-.31-1-.84-1.22C425.4,677.3,424.51,677.93,423.77,679.53Z" transform="translate(0 1)"/><path class="a9a83746-76f5-400a-b950-9dea47a7136e" d="M417.21,828.39c-3.19,0-4.9-1.66-4.91-4.57s1.76-4.7,4.29-4.63a3.32,3.32,0,0,1,2.66,1.2,3.22,3.22,0,0,1,.89,2.77c-.32,1.22-1.54.53-2.36.68-.35.07-.75-.05-1.09,0-.84.2-2.29-.64-2.35,1s1.18,2.1,2.62,2.13a2.44,2.44,0,0,1,.27,0c.86.13,2.3-1.26,2.47.1C419.9,828.73,417.9,827.94,417.21,828.39Zm-.89-5.67c.52-.43,1.77.43,1.82-.86,0-.94-.9-1.3-1.78-1.26s-1.76.44-1.8,1.34C414.52,823.15,415.66,822.37,416.32,822.72Z" transform="translate(0 1)"/><path class="fdc59661-d6a9-4881-a14f-bc9d7a5b8399" d="M391.06,704.48v.82c0,3.8,0,3.81-4.05,3.87-2.83,0-2.81-2.08-2.94-4a23.41,23.41,0,0,1,0-3c.05-.73-.37-1.9.95-1.85,1.11,0,.7,1.09.74,1.74.08,1.18,0,2.38.08,3.57.06.92.23,1.93,1.43,2s1.8-.85,1.91-1.91c.14-1.36.09-2.75.15-4.12,0-.61-.08-1.39.92-1.32.75.06.78.66.79,1.21,0,1,0,2,0,3Z" transform="translate(0 1)"/><path class="fdc59661-d6a9-4881-a14f-bc9d7a5b8399" d="M448.52,823.84v.83c0,3.54,0,3.54-3.94,3.69-2.83.11-2.93-1.94-3-3.92-.07-1.18,0-2.38,0-3.57,0-.62-.08-1.39.85-1.43s.83.79.85,1.38c0,1.28,0,2.57.06,3.85.06,1,.25,2.15,1.61,2.13s1.68-1,1.78-2.09c.11-1.28.06-2.56.12-3.84,0-.59-.18-1.41.81-1.43s.88.75.9,1.38C448.53,821.83,448.51,822.84,448.52,823.84Z" transform="translate(0 1)"/><path class="a160de7e-5e71-464a-9776-1ddaf7966dfc" d="M611.64,728.36c0,3-1.3,4.63-3.78,4.66s-3.91-1.72-4-4.59,1.57-4.89,4-4.82S611.64,725.35,611.64,728.36ZM610,728.1c-.3-1.13-.3-2.85-2.13-2.83s-1.93,1.69-1.92,3.08.1,3,2,3S609.76,729.69,610,728.1Z" transform="translate(0 1)"/><path class="a160de7e-5e71-464a-9776-1ddaf7966dfc" d="M496.71,680.94c0,3-1.32,4.61-3.81,4.62s-3.9-1.75-3.92-4.62,1.62-4.88,4.06-4.79S496.72,677.91,496.71,680.94Zm-5.76-.07c.12,1.32.06,3,1.93,3s2.05-1.59,2.07-3-.25-3-2-3.1S491.06,679.42,491,680.87Z" transform="translate(0 1)"/><path class="ed72b6b1-ed28-42a5-9dc4-47786d1f1e89" d="M345.26,680.87c0-3,1.35-4.66,3.77-4.7s4,1.8,4,4.84-1.5,4.57-4,4.53S345.26,683.89,345.26,680.87Zm5.89.07c-.22-1.3-.13-3-1.95-3.13s-2.09,1.56-2.13,2.93.15,3,1.91,3.17S350.9,682.33,351.15,680.94Z" transform="translate(0 1)"/><path class="aeeff375-3b07-4f8f-9968-7d89d6071b94" d="M666.84,732.78c-2.29.14-3.05-1.09-3.31-3.14-.21-1.65,1.38-4.23-2-4.63-.09,0-.13-.47-.19-.72,1.7-.22,2.19-1.44,2.71-2.87.17-.49,1.32-.17,1.32.66,0,1.7.92,1.93,2.28,1.8.46,0,1,0,.92.69s-.54.74-1,.67c-2.09-.31-2.3,1-2.11,2.49s-.81,3.6,2,3.51c.65,0,1.16.24,1,.91C668.37,733.27,667.39,732.57,666.84,732.78Z" transform="translate(0 1)"/><path class="aeeff375-3b07-4f8f-9968-7d89d6071b94" d="M446.45,637.3c-2.95.2-3-1.81-3.22-3.81-.15-1.5,1-3.69-1.93-3.91-.45,0-.48-1,0-1,1.45-.07,2.14-.63,2.1-2.12,0-.21.45-.56.75-.63.49-.11,1,.18,1,.67-.16,1.88.92,2.06,2.36,1.94.46,0,1,.11.89.73a.89.89,0,0,1-1.07.63c-1.77-.26-2.42.57-2.06,2.19.32,1.41-1.23,3.81,1.92,3.81.6,0,1.29.21,1.19.83C448.17,637.87,447,637.06,446.45,637.3Z" transform="translate(0 1)"/><path class="fb1f4f13-962a-4e0e-99d7-41cd0dfddf76" d="M465.26,725.26c-1-.12-2-.25-2.2.81-.26,1.24.93,1.13,1.64,1.36,1.33.44,2.71.74,2.75,2.57a2.48,2.48,0,0,1-1.32,2.52,5.91,5.91,0,0,1-4.82,0,.89.89,0,0,1-.4-1.19c.16-.45.55-.41.91-.33a15,15,0,0,0,1.61.37c.84.08,1.9,0,2.08-.87.25-1.25-1-1.36-1.85-1.54-1.74-.38-3.09-1.15-2.69-3.1.44-2.19,2.29-2.41,4.13-2.19.72.08,2,0,1.88,1.11C466.85,726.27,465.77,725.24,465.26,725.26Z" transform="translate(0 1)"/><path class="a9a83746-76f5-400a-b950-9dea47a7136e" d="M372.13,823.72c0,2.94-1.37,4.68-3.82,4.68s-3.72-1.51-3.78-4.38c-.08-3.07,1.19-4.75,3.62-4.83S372.09,820.77,372.13,823.72Zm-5.89.31c.12,1.2.15,2.94,2.14,2.89,1.79,0,1.93-1.68,1.93-3.08s-.12-3.23-2.11-3.16C366.46,820.73,366.3,822.33,366.24,824Z" transform="translate(0 1)"/><path class="a160de7e-5e71-464a-9776-1ddaf7966dfc" d="M628.41,725.34c-1.17-.24-2.25-.41-2.5.77s.94,1.1,1.67,1.32c1.33.42,2.7.76,2.81,2.52a2.48,2.48,0,0,1-1.31,2.53,6.07,6.07,0,0,1-4.8.13c-.48-.14-.57-.67-.47-1.15.14-.67.63-.5,1.06-.4s.89.26,1.34.32c.85.11,1.84,0,2.09-.86.3-1.09-.82-1.34-1.55-1.48-2-.39-3.52-1.2-2.83-3.43s2.66-2.18,4.57-1.84c.73.13,1.62.27,1.28,1.3S628.73,725.39,628.41,725.34Z" transform="translate(0 1)"/><path class="a9a83746-76f5-400a-b950-9dea47a7136e" d="M487.06,632.78c0,2.94-1.37,4.68-3.81,4.68s-3.73-1.51-3.79-4.38c-.08-3.07,1.18-4.75,3.62-4.83S487,629.83,487.06,632.78Zm-5.88.1c.07,1.41.14,3.12,2.11,3.1,1.79,0,1.95-1.66,1.95-3.05s-.11-3.24-2.09-3.2C481.41,629.77,481.23,631.37,481.18,632.88Z" transform="translate(0 1)"/><path class="a9a83746-76f5-400a-b950-9dea47a7136e" d="M372.13,632.78c0,3-1.38,4.69-3.82,4.68s-3.72-1.51-3.78-4.38c-.08-3.07,1.19-4.75,3.62-4.83S372.09,629.84,372.13,632.78Zm-5.88,0c.05,1.49.1,3.21,2,3.26,1.79,0,2-1.58,2-3s-.05-3.23-2-3.26C366.53,629.7,366.32,631.3,366.25,632.73Z" transform="translate(0 1)"/><path class="a160de7e-5e71-464a-9776-1ddaf7966dfc" d="M511.77,685.61c-.54-.08-1.17-.2-1.8-.28s-1.26-.45-1.11-1.24c.21-1.09,1-.42,1.53-.38a7.6,7.6,0,0,0,1.61.22c.6-.08,1.37-.24,1.45-1,.06-.62-.5-.92-1-1.13a3.68,3.68,0,0,0-.77-.26c-1.34-.22-2.52-.68-2.78-2.21a2.38,2.38,0,0,1,1.15-2.59,5,5,0,0,1,4.25-.24.85.85,0,0,1,.61,1c-.09.64-.58.59-1,.5s-.7-.23-1.06-.28c-.76-.11-1.57-.06-1.8.81s.57,1.16,1.3,1.32c.18,0,.35.12.53.16,1.7.39,2.95,1.2,2.6,3.18S513.46,685.41,511.77,685.61Z" transform="translate(0 1)"/><path class="e62c3828-298d-4201-9d54-b7357e51cf09" d="M571.86,686.92c-2.16,0-2.93-1.12-2.93-3,0-1.67,0-3.33-2.35-3.65-1.09-.14-.72-1.15-.08-1.22,2.76-.28,2.39-2.27,2.41-4s.74-3,2.74-3c.44,0,1-.13,1.19.4a.81.81,0,0,1-.78,1.15c-1.29.09-1.37,1-1.34,1.94.09,2.36-1.11,4.66-.07,7.11.45,1.05-.31,2.66,1.72,2.77.54,0,.64.63.47,1.08S572.1,686.91,571.86,686.92Z" transform="translate(0 1)"/><path class="fc3fe0ff-54f9-4b75-9ee7-92a3c86e4a09" d="M561.54,637.3c-3.09.26-3.24-1.8-3.39-3.93-.11-1.47.8-3.51-1.87-3.72a.29.29,0,0,1-.19-.18,5.82,5.82,0,0,1-.08-.73c2.08.12,1.75-2.37,3.14-2.9.58-.23,1,.4,1,1-.11,1.5.79,1.59,1.91,1.55.51,0,1.21-.11,1.23.69a.79.79,0,0,1-1,.71c-2.3-.28-2.25,1.21-2.13,2.76s-.65,3.38,2,3.23c.58,0,1.22.25,1.08.91C563.05,637.74,562.06,637.13,561.54,637.3Z" transform="translate(0 1)"/><path class="a341b009-692f-4035-8976-81a83ff97da5" d="M546.94,728.1v-.55c0-3.25,1.46-4.48,4.66-3.9a2.54,2.54,0,0,1,2.15,2.19,29.13,29.13,0,0,1,.26,5.75c0,.77-.28,1.22-1.13,1.15s-.84-.57-.85-1.15c0-1.46,0-2.93,0-4.4,0-.87-.16-1.72-1.23-1.83a1.67,1.67,0,0,0-1.9,1.58c-.2,1.53-.17,3.09-.23,4.64,0,.55,0,1.12-.8,1.16s-.87-.49-.88-1.07C546.94,730.48,547,729.29,546.94,728.1Z" transform="translate(0 1)"/><path class="ed72b6b1-ed28-42a5-9dc4-47786d1f1e89" d="M368,685.6c-.57-.09-1.2-.2-1.84-.26-.8-.08-1.17-.49-1-1.28s.81-.43,1.28-.37a7.18,7.18,0,0,0,1.6.28c.67-.09,1.57-.12,1.61-1.13,0-.85-.72-1-1.3-1.19-1.13-.34-2.5-.35-3-1.63s-.4-2.65,1-3.35a4.52,4.52,0,0,1,4.69.19c.15.1.17.51.15.76,0,.5-.43.52-.8.46s-.7-.24-1.06-.3c-.93-.17-2-.28-2.28.84s1,1.09,1.7,1.33c2.78.94,3.67,2.47,2.5,4.26C370.47,685.37,369.25,685.4,368,685.6Z" transform="translate(0 1)"/><path class="a9a83746-76f5-400a-b950-9dea47a7136e" d="M369,709.19c-3,0-4.65-1.67-4.62-4.65s1.77-4.68,4.35-4.54a3.39,3.39,0,0,1,2.93,1.73c1.21,2.07.76,2.88-1.65,2.92a9.06,9.06,0,0,0-1.65,0c-.75.15-2-.61-2.05,1a2.06,2.06,0,0,0,1.87,2c.35.08.74,0,1.09.06.81.17,2.25-1.32,2.33.35C371.69,709.41,369.91,708.94,369,709.19Zm-2.78-5.86c1.59,0,3,.65,4.07-.41.32-.31-.31-1-.8-1.23C368.07,701,367.11,701.55,366.25,703.33Z" transform="translate(0 1)"/><path class="a9a83746-76f5-400a-b950-9dea47a7136e" d="M340.29,828.39c-3.05,0-4.66-1.71-4.61-4.7s1.81-4.65,4.39-4.49a3.24,3.24,0,0,1,2.75,1.54c.47.79,1,1.69.64,2.57s-1.44.43-2.2.53c-.45.06-.93-.07-1.37,0-.82.19-2.27-.66-2.27,1,0,1.45,1.14,2,2.44,2.08.09,0,.2,0,.28,0,.85.37,2.39-1.54,2.54.37C343,828.57,341.13,828.14,340.29,828.39Zm-2.76-5.9c1.56.06,3,.67,4-.33.44-.41-.37-1.14-.95-1.37C339.11,820.22,338.26,820.93,337.53,822.49Z" transform="translate(0 1)"/><path class="fb1f4f13-962a-4e0e-99d7-41cd0dfddf76" d="M454.09,733.06c-.44-.07-1.08-.19-1.71-.27s-1.22-.46-1-1.27.85-.41,1.33-.36a8.54,8.54,0,0,0,1.62.23c.6-.07,1.37-.15,1.5-.95s-.57-1-1.16-1.29a5.24,5.24,0,0,0-.8-.22c-1.34-.28-2.45-.78-2.52-2.42a2.36,2.36,0,0,1,1.36-2.48,5,5,0,0,1,4.27.06,1.08,1.08,0,0,1,.4.91c0,.65-.54.59-1,.5-.18,0-.35-.11-.53-.16-1-.32-2.27-.48-2.57.71s1.12,1.19,1.93,1.41c1.66.46,3,1.21,2.67,3.18S455.94,732.94,454.09,733.06Z" transform="translate(0 1)"/><path class="ab97c43e-2acc-40aa-8b40-7f15d88bfcef" d="M582.38,733.38c.09.91-.39,1-1,1-2,0-3.06-1-2.93-3.09.1-1.65,0-3.2-2.13-3.5-.37,0-.74-.16-.69-.66s.23-.75.63-.76c2.52-.12,2.26-1.94,2.18-3.58-.08-1.94.5-3.27,2.69-3.28.5,0,1.19-.23,1.28.61a.78.78,0,0,1-.76.93c-1.42.12-1.5,1.13-1.48,2.19,0,2.21-.84,4.36-.08,6.65.41,1.23-.2,2.88,1.9,3C582.14,732.9,582.29,733.27,582.38,733.38Z" transform="translate(0 1)"/><path class="a9a83746-76f5-400a-b950-9dea47a7136e" d="M460.6,629.06c1.6-.53,2.63-1,2.9-2.67.18-1.14,1.39-1.33,2.44-1.33.61,0,1.5-.29,1.67.5.21,1-.77.77-1.33.87s-1.34.4-1.33,1.14c0,1.16,1,.7,1.65.86l1,.25c.14,1-.47,1-1,1-1.48,0-1.85.81-1.81,2.11.05,1.46,0,2.93,0,4.39,0,.61-.16,1.1-.91,1-.58-.06-.72-.49-.73-1,0-1.1-.06-2.2,0-3.3C463.13,631.22,463.35,629.42,460.6,629.06Z" transform="translate(0 1)"/><path class="a9a83746-76f5-400a-b950-9dea47a7136e" d="M403.29,704.67v-.83c0-3.33,1.38-4.41,4.74-3.78a2.16,2.16,0,0,1,1.93,2c.16,1.91.18,3.83.22,5.75,0,.55-.07,1.15-.84,1.13s-.81-.62-.82-1.17c0-1.46,0-2.93-.09-4.39,0-1-.35-1.9-1.55-1.87a1.79,1.79,0,0,0-1.78,1.77c-.14,1.45-.09,2.92-.14,4.39,0,.51.1,1.18-.68,1.26-1,.09-1-.62-1-1.27,0-1,0-2,0-3Z" transform="translate(0 1)"/><path class="bc64c3d6-ea58-4d26-9165-7eaa3ad929e6" d="M651.56,732.54c2.85-4.4,2.85-4.4.39-8.38a1.6,1.6,0,0,1,2.43.74c1,1.81,1.92,1.54,2.79-.09.53-1,1.38-1,2.41-.82-.4,1.78-2.73,2.74-2.37,4.38.32,1.47,1.8,2.69,2.79,4.06-1.68,1-2.42-.18-3-1.25-.92-1.61-1.63-1.36-2.43.07C653.91,732.35,653.15,733.26,651.56,732.54Z" transform="translate(0 1)"/><path class="a9a83746-76f5-400a-b950-9dea47a7136e" d="M422.27,819.91c1.51-.45,2.59-.74,2.74-2.42.1-1.12,1.25-1.51,2.34-1.48.66,0,1.67-.44,1.84.57s-.84.68-1.4.8-1.29.36-1.27,1.16c0,1,.82.75,1.42.82s1.23-.15,1.24.67c0,.62-.6.63-1,.6-1.57-.11-1.8.83-1.75,2.09s.05,2.38,0,3.56c0,.72.4,1.9-.92,1.86-1.12,0-.66-1.1-.73-1.74a16,16,0,0,1,0-2.19C424.77,822.4,425,820.5,422.27,819.91Z" transform="translate(0 1)"/><path class="fdc59661-d6a9-4881-a14f-bc9d7a5b8399" d="M383,820.14c1.58-.92,3.13-.91,3.15-2.8,0-.83,1.35-.56,1.39.35.08,1.61,1,1.75,2.19,1.68.46,0,1,0,.95.67s-.59.66-1.05.62c-1.91-.18-2.14,1-2,2.44s-.82,3.57,1.92,3.74c.55,0,1.23,0,1.11.84s-.84.54-1.35.57c-2.51.14-3.39-.78-3.42-3.76C385.91,822.59,386.29,820.59,383,820.14Z" transform="translate(0 1)"/><path class="fdc59661-d6a9-4881-a14f-bc9d7a5b8399" d="M383.45,629.06c1.43-.61,2.63-.83,2.63-2.58,0-.76,1.34-.73,1.35-.07,0,2.42,1.86,2,3.19,2.06.13.66.09,1.16-.34,1.13-2.55-.18-2.78,1.32-2.64,3.3.1,1.52-.1,3.08,2.15,3,.48,0,.95.16.94.74s-.55.58-1,.65c-2.54.39-3.69-.71-3.8-3.67C385.85,631.81,386.55,629.6,383.45,629.06Z" transform="translate(0 1)"/><path class="fdc59661-d6a9-4881-a14f-bc9d7a5b8399" d="M459.58,820.09c1.72-.84,3.23-.85,3.21-2.74,0-.78,1.33-.64,1.39.35.1,1.59,1,1.73,2.21,1.66.43,0,1-.07,1,.6s-.5.73-.95.7c-2-.17-2.29,1-2.17,2.59s-.51,3.54,2.13,3.6c.48,0,1,.14,1,.7,0,.83-.69.66-1.2.7-2.57.22-3.65-.84-3.64-3.85C462.57,822.5,462.83,820.6,459.58,820.09Z" transform="translate(0 1)"/><path class="e62c3828-298d-4201-9d54-b7357e51cf09" d="M338.09,767.53c1.7.22,2.27,1.24,2.26,2.86s-.52,3.83,2.35,4.06a.64.64,0,0,1,0,1.28c-2.45.41-2.44,2.12-2.38,3.92a2.18,2.18,0,0,1-1.6,2.53c-.75.2-1.77.7-2.2-.24s.53-1.06,1.24-1.25.74-.7.85-1.28c.56-3,.14-6,0-9a1.24,1.24,0,0,0-1.19-1.27c-.62-.08-1.11-.38-.93-1.05C336.71,767.15,337.53,767.66,338.09,767.53Z" transform="translate(0 1)"/><path class="ab97c43e-2acc-40aa-8b40-7f15d88bfcef" d="M673.39,719.5c1.84.26,2.37,1.31,2.35,2.92,0,1.77-.47,3.82,2.39,4a.64.64,0,0,1-.07,1.28c-2.47.41-2.39,2.18-2.33,3.95.06,1.92-1,2.59-2.73,2.7-.44,0-1,.1-1.13-.47s0-1,.53-1.06c1.79-.13,1.46-1.42,1.67-2.59a13.89,13.89,0,0,0,0-6c-.33-1.32.44-3.07-1.83-3.33-.16,0-.44-.64-.36-.89C672.16,719.14,673,719.72,673.39,719.5Z" transform="translate(0 1)"/><path class="bc64c3d6-ea58-4d26-9165-7eaa3ad929e6" d="M648,732.74c-2.52.23-3.21-1-3.37-3.11-.13-1.66,1.35-4.24-2-4.64-.39,0-.44-1,.12-1,1.46,0,2.19-.52,2-2.08-.05-.37.27-.65.71-.66s1,.2.92.75c-.17,1.65.64,2,2.1,1.88.5-.06,1.26-.12,1.17.7s-.8.68-1.32.64c-1.35-.12-2.25.3-1.86,1.79s-1.31,3.7,1.57,4.22c.66.12,1.74-.14,1.58,1S648.35,732.45,648,732.74Z" transform="translate(0 1)"/><path class="aeeff375-3b07-4f8f-9968-7d89d6071b94" d="M432,633c0-3.53,2.89-5.74,6-4.57.81.3,1.38.7,1.09,1.56-.36,1.1-1.08.22-1.54,0a2.36,2.36,0,0,0-3.11.92,3.65,3.65,0,0,0,0,3.92c.71,1.18,1.87,1.28,3.14.88.47-.15,1.21-1,1.51.14.24.89-.37,1.25-1.17,1.51C434.8,638.39,432.05,636.36,432,633Z" transform="translate(0 1)"/><path class="a9a83746-76f5-400a-b950-9dea47a7136e" d="M353.28,827.86c-1.83.85-2.34-.37-2.9-1.23-.91-1.42-1.62-1.48-2.56,0-.54.87-1.05,2.09-2.84,1.26,2.15-2.59,4.59-5.3.13-7.89.48-.37.59-.52.74-.55,1.89-.38,1.84,2.39,3.37,2.23,1.32-.15,1.35-2.78,3.85-2C349.43,822.47,350.52,825.26,353.28,827.86Z" transform="translate(0 1)"/><path class="fc3fe0ff-54f9-4b75-9ee7-92a3c86e4a09" d="M546.93,632.91c0-3.49,2.66-5.61,5.78-4.6.76.25,1.51.51,1.35,1.42-.26,1.41-1.16.41-1.68.25a2.36,2.36,0,0,0-2.93.83,3.71,3.71,0,0,0-.09,3.94c.69,1.23,1.86,1.28,3.13,1,.5-.13,1.23-.93,1.54.16.25.9-.4,1.24-1.19,1.51C549.73,638.41,547,636.34,546.93,632.91Z" transform="translate(0 1)"/><path class="fdc59661-d6a9-4881-a14f-bc9d7a5b8399" d="M451.23,816.47c3.9-1.16,4.19-1,4.19,2.41,0,1.55,0,3.11,0,4.66s-.13,3.24,2.21,3.29a.71.71,0,0,1,.75.9c-.09.45-.5.47-.85.5-2,.2-3.51-.43-3.72-2.63-.17-1.72-.12-3.47-.13-5.2C453.67,817.68,453.68,817.68,451.23,816.47Z" transform="translate(0 1)"/><path class="ed72b6b1-ed28-42a5-9dc4-47786d1f1e89" d="M338.08,680.93c0,2.44,1.13,3.24,3.76,2.77.44-.07,1-.74,1.23.25a1,1,0,0,1-.72,1.29c-1.85.47-3.66.48-5.09-1s-1.46-4.82-.21-6.4c1.36-1.73,3.21-1.9,5.2-1.36a1,1,0,0,1,.77,1.48c-.33.9-.88.12-1.31,0C339.28,677.5,338.05,678.48,338.08,680.93Z" transform="translate(0 1)"/><path class="fb1f4f13-962a-4e0e-99d7-41cd0dfddf76" d="M427.14,733c-2-.09-3.58-.52-4.29-2.31a5.45,5.45,0,0,1,.48-5.51,4.18,4.18,0,0,1,4.46-1.43c.72.15,1.59.28,1.46,1.29-.19,1.51-1.1.4-1.61.29a2.48,2.48,0,0,0-2.88,1,3.71,3.71,0,0,0-.13,3.69,2.65,2.65,0,0,0,2.51,1.36c.7.06,1.88-1.48,2.06.26C429.36,733.17,427.74,732.64,427.14,733Z" transform="translate(0 1)"/><path class="a9a83746-76f5-400a-b950-9dea47a7136e" d="M722.9,730.69c.86-2.41,1.44-4.05,2-5.68.23-.64.53-1.27,1.35-1,1.1.31.37,1.09.22,1.55-.64,2-1.42,4-2.1,6-.26.78-.6,1.3-1.52,1.27a1.36,1.36,0,0,1-1.38-1.08c-.73-2.17-1.53-4.32-2.28-6.49-.17-.47-.57-1.06.34-1.25.68-.14,1,.26,1.25.81C721.41,726.47,722,728.19,722.9,730.69Z" transform="translate(0 1)"/><path class="bc64c3d6-ea58-4d26-9165-7eaa3ad929e6" d="M571.25,727.68c-2.09-.82-3.66-1.47-5.25-2.06a1,1,0,0,1-.74-1.25c.19-.83.87-.55,1.32-.38,2.13.82,4.22,1.7,6.34,2.54.52.22,1,.45,1,1.13s-.56,1-1.21,1.27c-2,.77-4.07,1.6-6.1,2.41-.49.2-1.07.6-1.36-.15a1.12,1.12,0,0,1,.79-1.51C567.64,729.06,569.23,728.46,571.25,727.68Z" transform="translate(0 1)"/><path class="a9a83746-76f5-400a-b950-9dea47a7136e" d="M406.73,730.63c.87-2.43,1.47-4,2-5.69.23-.7.64-1.21,1.38-.91s.36.94.19,1.43q-1.06,3.1-2.18,6.2a1.38,1.38,0,0,1-1.35,1.12,1.42,1.42,0,0,1-1.55-1.19c-.7-2.07-1.46-4.13-2.18-6.19-.17-.48-.6-1.09.13-1.4s1.17.15,1.42.86C405.21,726.55,405.84,728.22,406.73,730.63Z" transform="translate(0 1)"/><path class="ed72b6b1-ed28-42a5-9dc4-47786d1f1e89" d="M379.5,685.32c-2.35.11-3.19-1.05-3.37-3.33-.12-1.55,1.47-4.11-1.87-4.42-.09,0-.14-.48-.21-.73,2.05.06,1.82-2.16,3-2.92.57-.37.93.43.87,1-.14,1.56.87,1.52,1.94,1.51.48,0,1.24-.22,1.28.59s-.7.76-1.2.71c-1.55-.14-2.26.48-2,2s-1,3.75,1.87,4.08c.6.07,1.49,0,1.3.94S380.06,685.2,379.5,685.32Z" transform="translate(0 1)"/><path class="a341b009-692f-4035-8976-81a83ff97da5" d="M542.39,732.78c-1.84,0-2.92-.62-3.22-2.62-.28-1.83,1.48-4.56-2-5.25-.28-.06-.13-.94.12-.85,2.53.86,1.65-3.86,3.1-2.43,1.07,1.06,1.44,2.53,3.35,2.34.11,0,.39.4.38.6,0,.59-.55.71-1,.67-1.57-.13-2.51.33-2.2,2.13.26,1.53-.87,3.79,2.08,3.89.56,0,1.24.11,1.13.85C544,733.25,543,732.56,542.39,732.78Z" transform="translate(0 1)"/><path class="ed72b6b1-ed28-42a5-9dc4-47786d1f1e89" d="M552,680.22c-2-.81-3.5-1.43-5-2-.71-.27-1.16-.72-.84-1.43s.93-.36,1.43-.16l5.86,2.35c.58.24,1.25.42,1.19,1.28s-.65,1-1.28,1.23c-2,.74-3.92,1.53-5.87,2.31-.5.19-1,.62-1.37-.14a1,1,0,0,1,.64-1.34C548.36,681.68,549.94,681.06,552,680.22Z" transform="translate(0 1)"/><path class="bc64c3d6-ea58-4d26-9165-7eaa3ad929e6" d="M682.75,727.71c2.11.78,3.55,1.29,5,1.85.7.27,1.45.68,1.08,1.59s-1,.3-1.6.08c-2-.77-3.88-1.56-5.84-2.29-.65-.24-1.18-.47-1.21-1.26s.43-.92,1-1.14c2.11-.84,4.2-1.72,6.32-2.54.46-.18,1.13-.45,1.38.31a1,1,0,0,1-.69,1.29C686.53,726.21,684.94,726.84,682.75,727.71Z" transform="translate(0 1)"/><path class="bc64c3d6-ea58-4d26-9165-7eaa3ad929e6" d="M376.48,727.56c1.52,1.13,3.15,1.39,4.63,2,.71.29,1.43.75,1,1.62s-1.08.23-1.64,0c-1.86-.74-3.71-1.5-5.58-2.2-.71-.26-1.41-.43-1.42-1.39s.72-1,1.27-1.21c1.93-.81,3.87-1.6,5.82-2.33.54-.2,1.3-.67,1.59.28.23.77-.34,1.11-1,1.36C379.65,726.28,378.18,726.89,376.48,727.56Z" transform="translate(0 1)"/><path class="a9a83746-76f5-400a-b950-9dea47a7136e" d="M373.4,700.71c1.76-.57,3.29-.72,3-2.6-.05-.35,1.07-.52,1.08-.24.07,2.41,2,2.45,3.78,3.11-.22.12-.46.36-.68.34-2.65-.24-2.83,1.34-2.73,3.4.08,1.61.13,3,2.24,3,.46,0,1,.1,1,.7s-.56.57-1,.64c-2.5.37-3.76-.82-3.85-3.66C376.13,701.82,376.13,701.82,373.4,700.71Z" transform="translate(0 1)"/><path class="a9a83746-76f5-400a-b950-9dea47a7136e" d="M394.51,724.49c3.95-1,3.85-1,4,2.61.07,1.73-1.19,4.34,2.25,4.51.14,0,.38.41.36.61s-.32.5-.49.49c-2.19-.07-4.44.48-7.45-.62,2.66-.53,4-1.21,3.69-3.62C396.65,726.7,396.79,725.09,394.51,724.49Z" transform="translate(0 1)"/><path class="a9a83746-76f5-400a-b950-9dea47a7136e" d="M336.34,636.45c2.11-.33,3.29-1.1,3.06-3.49-.17-1.81-.22-3.3-2.59-3.82,3.77-1.35,4.05-1.09,4.24,2.25.09,1.79-1.31,4.53,2.27,4.77.13,0,.34.41.33.63,0,.51-.47.5-.81.5-2.06,0-4.12,0-6.18,0Z" transform="translate(0 1)"/><path class="bc64c3d6-ea58-4d26-9165-7eaa3ad929e6" d="M733.82,727.57c-1.68-.67-3.14-1.3-4.64-1.82-.72-.25-1.15-.59-1-1.36.26-1.07,1-.46,1.5-.28,2,.72,3.9,1.53,5.84,2.31.61.24,1.2.48,1.14,1.32s-.58,1-1.23,1.25c-2,.72-3.9,1.52-5.85,2.29-.47.18-1,.72-1.38,0a1.14,1.14,0,0,1,.69-1.57C730.48,729,732.23,728.74,733.82,727.57Z" transform="translate(0 1)"/><path class="a9a83746-76f5-400a-b950-9dea47a7136e" d="M718.15,732.51c-3.19.31-5.53.53-8.75-.27,2.49-.79,4-1.33,3.7-3.77-.2-1.8-.28-3.29-2.57-3.9,3.74-1.26,4.14-1,4.17,2.12v.83C714.7,730.76,714.7,730.76,718.15,732.51Z" transform="translate(0 1)"/><path class="e62c3828-298d-4201-9d54-b7357e51cf09" d="M523.21,679.55a11.41,11.41,0,0,1-1.78,6.31c-.31.56-.78,1.17-1.53.76s-.14-1,.06-1.41a12.55,12.55,0,0,0,0-11.63c-.2-.41-.78-1,0-1.36.61-.29,1.06.11,1.35.62A11.37,11.37,0,0,1,523.21,679.55Z" transform="translate(0 1)"/><path class="a99de7d1-0dbb-4d0e-bf3e-6c7a262c2eb4" d="M379.52,750.62a13.88,13.88,0,0,1-1.85,6.27c-.33.59-.78,1.19-1.5.83s-.12-1,.08-1.39a12.85,12.85,0,0,0,0-11.42c-.21-.44-.79-1-.08-1.42s1.17.29,1.5.86A13.67,13.67,0,0,1,379.52,750.62Z" transform="translate(0 1)"/><path class="bc64c3d6-ea58-4d26-9165-7eaa3ad929e6" d="M690.92,734.39c-.76,0-.93-.39-.6-1.09,1.82-3.89,3.62-7.79,5.45-11.68a1.19,1.19,0,0,1,1.62-.67c.7.35.24.9,0,1.4q-2.56,5.46-5.09,10.94C692,733.92,691.7,734.41,690.92,734.39Z" transform="translate(0 1)"/><path class="e62c3828-298d-4201-9d54-b7357e51cf09" d="M462.4,679.38a11,11,0,0,1,1.87-6.54c.28-.5.74-.93,1.35-.62s.24,1,0,1.4a12.34,12.34,0,0,0,0,11.61c.21.42.75,1,0,1.42s-1.19-.22-1.52-.79A11,11,0,0,1,462.4,679.38Z" transform="translate(0 1)"/><path class="fb1f4f13-962a-4e0e-99d7-41cd0dfddf76" d="M434.44,720.37c1.64-.26,2.1.51,2,2-.11,2,0,4,0,6.05,0,1.46-.06,2.86,2,2.78a.8.8,0,0,1,.92.8c0,.78-.67.71-1.21.74-2.1.15-3.38-.68-3.42-2.92s0-4.21-.05-6.32c0-.67.25-1.53-.85-1.73-.54-.11-1.57.16-1.31-.86S433.78,720.48,434.44,720.37Z" transform="translate(0 1)"/><path class="a99de7d1-0dbb-4d0e-bf3e-6c7a262c2eb4" d="M423.86,703.22a13.72,13.72,0,0,1,2-6.5c.32-.51.76-1,1.32-.7.74.34.22.92,0,1.38a13,13,0,0,0,.05,11.66c.19.39.61.86,0,1.18s-1,0-1.37-.53A13.72,13.72,0,0,1,423.86,703.22Z" transform="translate(0 1)"/><path class="fc3fe0ff-54f9-4b75-9ee7-92a3c86e4a09" d="M519.36,632.58c0-.83,0-1.66,0-2.48-.07-1.23.23-2.09,1.67-1.58s2.56-1.07,4-.26c.5.29,1,.44,1,1.13s-.49.84-1.1.72c-2.93-.59-3.32,1.2-3.54,3.5-.12,1.22,1.15,3.6-1.07,3.5-1.82-.09-.51-2.43-.88-3.71A3.2,3.2,0,0,1,519.36,632.58Z" transform="translate(0 1)"/><path class="fdc59661-d6a9-4881-a14f-bc9d7a5b8399" d="M471.59,633a10.07,10.07,0,0,1,0-1.1c.11-1.07-.24-3.09.29-3,1.79.12,3.43-1,5.2-.46a1,1,0,0,1,.84,1.21c-.1.68-.58.54-1,.45-2.89-.59-3.38,1.14-3.61,3.46-.13,1.25,1.07,3.53-1,3.57-1.35,0-.46-2.3-.72-3.54A2.43,2.43,0,0,1,471.59,633Z" transform="translate(0 1)"/><path class="fdc59661-d6a9-4881-a14f-bc9d7a5b8399" d="M356.66,704.57a5.61,5.61,0,0,1,0-.82c.15-1.15-.39-3.27.39-3.26,1.7,0,3.28-.87,5-.43.6.16,1,.45,1,1.11s-.34.75-.91.62c-3.3-.72-3.58,1.39-3.73,3.84-.08,1.12.81,3.18-.84,3.19s-.54-2.05-.86-3.15A4.48,4.48,0,0,1,356.66,704.57Z" transform="translate(0 1)"/><path class="a9a83746-76f5-400a-b950-9dea47a7136e" d="M375.71,823.83a5,5,0,0,1,0-.55c.17-1.25-.43-3.5.41-3.54,1.59-.08,3.13-.86,4.75-.49.68.16,1.33.39,1.17,1.21s-.81.44-1.32.39c-3-.33-3.15,1.68-3.38,3.84-.12,1.16.76,3.29-.67,3.29-1.86,0-.56-2.18-.95-3.33A2.81,2.81,0,0,1,375.71,823.83Z" transform="translate(0 1)"/><path class="a160de7e-5e71-464a-9776-1ddaf7966dfc" d="M596.13,728.45c0-.28,0-.55,0-.82.12-1.16-.27-3.32.29-3.31,1.71,0,3.25-1,5-.59.63.15,1.33.36,1.27,1.17-.08,1-.88.63-1.46.56-3-.34-3.08,1.74-3.35,3.83-.16,1.15.8,3.24-.72,3.25-1.94,0-.55-2.15-1-3.28A2.44,2.44,0,0,1,596.13,728.45Z" transform="translate(0 1)"/><path class="a9a83746-76f5-400a-b950-9dea47a7136e" d="M375.71,632.7a5,5,0,0,1,0-.55c.14-1.16-.56-2.95.4-3.36,1.45-.61,3.28-.37,4.95-.41a1,1,0,0,1,1,1.06c0,.62-.52.65-1,.56-3.3-.62-3.53,1.55-3.74,3.94-.09,1.11.77,3.17-.84,3.12s-.46-2.13-.77-3.26A4.49,4.49,0,0,1,375.71,632.7Z" transform="translate(0 1)"/><path class="a160de7e-5e71-464a-9776-1ddaf7966dfc" d="M483.08,676.83c1.05-.11,2.14-1.08,3.48-.52.67.28,1.15.61,1,1.38s-.67.49-1.11.4c-3.09-.6-3.47,1.29-3.64,3.7-.07,1.15,1,3.31-.92,3.3-1.5,0-.52-2.12-.7-3.27a26.53,26.53,0,0,1,0-3.57C481.14,677.05,481.14,675.88,483.08,676.83Z" transform="translate(0 1)"/><path class="a9a83746-76f5-400a-b950-9dea47a7136e" d="M395,704.42c0-.27,0-.54,0-.82.09-1.07-.06-3.12.22-3.07,1.81.32,3.43-.95,5.19-.42.61.19.94.56.83,1.19s-.61.49-1,.41c-2.86-.51-3.35,1.2-3.58,3.5-.12,1.25,1.1,3.51-.92,3.55-1.31,0-.41-2.28-.68-3.52A3.73,3.73,0,0,1,395,704.42Z" transform="translate(0 1)"/><path class="ed72b6b1-ed28-42a5-9dc4-47786d1f1e89" d="M540.79,682.8c-1,0-2,0-3,0-.54,0-1.16,0-1.2-.79s.59-.84,1.14-.85c2,0,4,0,6,0,.63,0,1.42,0,1.34.92-.06.66-.71.72-1.27.73Z" transform="translate(0 1)"/><path class="a9a83746-76f5-400a-b950-9dea47a7136e" d="M512,730.29c-1.35-.47-3.83.63-3.83-.8,0-1.6,2.4-.77,3.69-.74s4.08-.83,4.06.63C515.93,731.15,513.36,729.69,512,730.29Z" transform="translate(0 1)"/><path class="bc64c3d6-ea58-4d26-9165-7eaa3ad929e6" d="M385.81,757c.74-.72-1-3.27,1.65-3.61,1.28-.17,1.66.82,1.34,1.78-.47,1.44-.51,3.39-2.67,3.56C385.12,758.77,385.19,758.11,385.81,757Z" transform="translate(0 1)"/><path class="bc64c3d6-ea58-4d26-9165-7eaa3ad929e6" d="M522.87,827.15c-.67,1.14-.4,3.21-2.69,3.29-.77,0-1-.58-.64-1.05,1.1-1.27-1-4,2-4.31C523,825,522.88,826,522.87,827.15Z" transform="translate(0 1)"/><path class="bc64c3d6-ea58-4d26-9165-7eaa3ad929e6" d="M580.32,636.14c-.49,1.2-.43,3.08-2.56,3.36-.65.09-1.25-.39-.79-.93,1.1-1.32-.88-4,2-4.43C580.27,633.93,580.41,634.87,580.32,636.14Z" transform="translate(0 1)"/><path class="bc64c3d6-ea58-4d26-9165-7eaa3ad929e6" d="M350.28,779.29c-.32,1.49-.42,3.2-2.36,3.69-.61.16-1.32-.34-.92-.84,1.08-1.36-.77-3.89,1.81-4.5C350,777.35,350.47,778.08,350.28,779.29Z" transform="translate(0 1)"/><path class="fdc59661-d6a9-4881-a14f-bc9d7a5b8399" d="M512.2,726.59c-1.09,0-2.19,0-3.29,0-.49,0-.92-.23-1-.77s.4-.78.88-.78c2.2,0,4.39,0,6.59,0,.5,0,.89.25.8.83a.73.73,0,0,1-.73.69c-1.09,0-2.19,0-3.29,0Z" transform="translate(0 1)"/><path class="ed72b6b1-ed28-42a5-9dc4-47786d1f1e89" d="M540.62,679.2c-1.14-.46-3.83.84-3.79-.74,0-1.88,2.65-.57,4.09-.87a13.25,13.25,0,0,1,3,0c.53,0,1.21,0,1.15.77s-.59.86-1.2.86Z" transform="translate(0 1)"/><path class="fdc59661-d6a9-4881-a14f-bc9d7a5b8399" d="M445.26,677.55c.81,0,1.63,0,2.45,0,.57,0,1.42-.22,1.37.8,0,.71-.66.77-1.21.78h-5.72c-.55,0-1.18,0-1.24-.75-.07-1,.78-.8,1.35-.83C443.26,677.52,444.26,677.55,445.26,677.55Z" transform="translate(0 1)"/><path class="aeeff375-3b07-4f8f-9968-7d89d6071b94" d="M387.29,747.61c1.36-.21,1.46.62,1.45,1.65s-.33,1.51-1.42,1.52-1.55-.51-1.58-1.65S386.09,747.41,387.29,747.61Z" transform="translate(0 1)"/><path class="aeeff375-3b07-4f8f-9968-7d89d6071b94" d="M580.17,629.82c.08,1,.06,1.83-1.35,1.78s-1.48-.65-1.48-1.73.15-1.51,1.31-1.51S580.43,628.58,580.17,629.82Z" transform="translate(0 1)"/><path class="a341b009-692f-4035-8976-81a83ff97da5" d="M518.12,722.92c.46-.77-.74-2.31,1.06-2.32s1.07,1.59,1.09,2.47.72,2.57-1.14,2.45S518.66,723.74,518.12,722.92Z" transform="translate(0 1)"/><path class="aeeff375-3b07-4f8f-9968-7d89d6071b94" d="M522.71,820.77c.09,1,0,1.82-1.36,1.77s-1.47-.68-1.47-1.74.17-1.49,1.32-1.5S523,819.55,522.71,820.77Z" transform="translate(0 1)"/><path class="a341b009-692f-4035-8976-81a83ff97da5" d="M570.09,627.69c.48-.81-.77-2.47,1.12-2.54s1.07,1.59,1.09,2.47.78,2.51-1.14,2.45C569.47,630,570.47,628.53,570.09,627.69Z" transform="translate(0 1)"/><path class="a341b009-692f-4035-8976-81a83ff97da5" d="M558.6,723c-.4.85.74,2.53-1.18,2.5s-1-1.66-1-2.55-.77-2.27.91-2.37C559.3,720.5,558.24,722.16,558.6,723Z" transform="translate(0 1)"/><path class="a341b009-692f-4035-8976-81a83ff97da5" d="M524.4,723.11c-.44.81.65,2.3-1,2.42-1.88.14-1.23-1.47-1.2-2.38s-.78-2.52,1-2.52S523.9,722.31,524.4,723.11Z" transform="translate(0 1)"/><path class="a341b009-692f-4035-8976-81a83ff97da5" d="M514.94,627.69c-.31.85.59,2.36-1.07,2.37-2.11,0-1-1.77-1.11-2.72-.09-.79-.68-2.3,1.08-2.2S514.52,626.86,514.94,627.69Z" transform="translate(0 1)"/><path class="bc64c3d6-ea58-4d26-9165-7eaa3ad929e6" d="M350.24,773.51c.2,1.25-.44,1.54-1.55,1.54-1.46,0-1.14-1-1.23-1.88-.13-1.17.49-1.26,1.44-1.31C350.24,771.78,350.39,772.49,350.24,773.51Z" transform="translate(0 1)"/><path class="e97f37fd-93e9-49da-a9ac-1041bb354074" d="M634.72,731.21c-.06-1-.14-1.83,1.3-1.79,1.09,0,1.71.18,1.61,1.47-.08,1,.14,2-1.46,1.9C634.93,732.74,634.54,732.31,634.72,731.21Z" transform="translate(0 1)"/><path class="a9a83746-76f5-400a-b950-9dea47a7136e" d="M444.89,682.76c-1.32-.41-3.78.45-3.68-.64.15-1.73,2.38-.71,3.67-.77s4.05-.41,3.9.47C448.46,683.73,446.18,682.13,444.89,682.76Z" transform="translate(0 1)"/><path class="a341b009-692f-4035-8976-81a83ff97da5" d="M566,627.69c.45-.82-.73-2.49,1.11-2.52,1.62,0,1,1.51.93,2.32s.85,2.52-1,2.55C565.47,630.07,566.37,628.53,566,627.69Z" transform="translate(0 1)"/><path class="a341b009-692f-4035-8976-81a83ff97da5" d="M510.79,627.42c-.54.93.68,2.62-1.19,2.62-1.58,0-1-1.51-.93-2.33s-.84-2.52,1-2.54S510.2,626.77,510.79,627.42Z" transform="translate(0 1)"/><path class="a341b009-692f-4035-8976-81a83ff97da5" d="M562.65,723.05c-.35.86.54,2.36-1,2.45-1.86.11-1.06-1.56-1.09-2.44s-.67-2.31.85-2.4C563.36,720.54,562.21,722.25,562.65,723.05Z" transform="translate(0 1)"/></svg>