<svg id="f884a629-5ac5-41ff-88e1-871f126dbe96" data-name="Capa 1" xmlns="http://www.w3.org/2000/svg" viewBox="0 0 652.34 494"><defs><style>.b3f33667-9887-4509-8439-2e57cd172d6f{fill:#0054ff;}.a251f4d8-f00d-4827-a731-98045a336e83{fill:#00a6ff;}.a40ef073-b6a8-40e2-9d5c-bad6454f1c1a{fill:#00e1ff;}.f96abfdf-69da-4603-8289-dd51775d3c21{font-size:16px;font-family:Roboto-Regular, Roboto;}.ef631251-2a68-43c6-bc07-05c7d526abb7{letter-spacing:-0.01em;}.e636bbd3-3d01-4158-8fd0-f3fd27453fc0{fill:#7e2eff;}.a1ad60db-b69b-4188-99e4-3bcfe599d46b{letter-spacing:-0.01em;}.edda4f45-09fd-4bc7-a93f-8cb13cda5629{fill:#00c8d0;}.bb475384-7cbd-4017-8810-0a79bf397509{letter-spacing:-0.01em;}.baa22fe0-1781-4e51-a165-3baf4f111fa3{letter-spacing:-0.06em;}.a2db94c0-0e62-4165-b08e-0a67e1682efb{fill:#ff0089;}.ff4bd4af-393b-4e97-925b-16d3b39cc259{fill:#f40;}.a8a2ae67-878f-46a3-94a6-676fd131870f{fill:#ff7300;}.b2b969ba-4adb-4582-bcf8-3e1d6b0d1eba{fill:#ff9600;}.a54ecf6c-5fee-4ec3-9ebe-bc03a7c2c921{fill:#ffc600;}.a5a2e262-a0db-44ea-9827-fe630260464a,.a6c03dbb-f1fc-4e76-9f7c-3c54f3590938,.a70b8bc1-3d9e-439d-ad9c-709826896e58,.a9982558-851e-4459-a78a-f3eac04d387f,.aa6159d6-20f7-4deb-b4a4-e859da8150ee,.afea3bd7-d1a8-41a3-a62b-f9c1a9eada6e,.bed6aed4-ee6d-45d3-aa3f-32478ad1dafb,.e7075890-b720-47d5-9688-4a15bc0b59ac,.f045f9e4-f4cd-4071-91dc-b3f98c809262,.f69936e6-1a33-402c-8e65-49accf6ca2be,.fac4df14-a97b-4d78-8a7e-78bc3afe92de{fill:none;stroke-miterlimit:10;}.afea3bd7-d1a8-41a3-a62b-f9c1a9eada6e{stroke:#00a6ff;}.a6c03dbb-f1fc-4e76-9f7c-3c54f3590938,.a9982558-851e-4459-a78a-f3eac04d387f,.aa6159d6-20f7-4deb-b4a4-e859da8150ee,.afea3bd7-d1a8-41a3-a62b-f9c1a9eada6e,.bed6aed4-ee6d-45d3-aa3f-32478ad1dafb,.e7075890-b720-47d5-9688-4a15bc0b59ac,.f045f9e4-f4cd-4071-91dc-b3f98c809262,.f69936e6-1a33-402c-8e65-49accf6ca2be,.fac4df14-a97b-4d78-8a7e-78bc3afe92de{stroke-width:2px;}.aa6159d6-20f7-4deb-b4a4-e859da8150ee{stroke:#0054ff;}.e7075890-b720-47d5-9688-4a15bc0b59ac{stroke:#00c8d0;}.f69936e6-1a33-402c-8e65-49accf6ca2be{stroke:#f40;}.a6c03dbb-f1fc-4e76-9f7c-3c54f3590938{stroke:#ff7300;}.bed6aed4-ee6d-45d3-aa3f-32478ad1dafb{stroke:#ffc600;}.f045f9e4-f4cd-4071-91dc-b3f98c809262{stroke:#ff9600;}.a9982558-851e-4459-a78a-f3eac04d387f{stroke:#7e2eff;}.fac4df14-a97b-4d78-8a7e-78bc3afe92de{stroke:#ff0089;}.a5a2e262-a0db-44ea-9827-fe630260464a,.a70b8bc1-3d9e-439d-ad9c-709826896e58{stroke:#999;}.a70b8bc1-3d9e-439d-ad9c-709826896e58{stroke-dasharray:5.97 5.97;}</style></defs><title>reactjs2</title><rect class="b3f33667-9887-4509-8439-2e57cd172d6f" x="318.1" y="136" width="127" height="32"/><rect class="a251f4d8-f00d-4827-a731-98045a336e83" x="318.1" y="68" width="127" height="32"/><rect class="a40ef073-b6a8-40e2-9d5c-bad6454f1c1a" x="318.1" width="127" height="32"/><text class="f96abfdf-69da-4603-8289-dd51775d3c21" transform="translate(344.45 20.29)">index.html</text><text class="f96abfdf-69da-4603-8289-dd51775d3c21" transform="translate(42.85 20.29)">public</text><text class="f96abfdf-69da-4603-8289-dd51775d3c21" transform="translate(42.85 84.29)">s<tspan class="ef631251-2a68-43c6-bc07-05c7d526abb7" x="8.25" y="0">r</tspan><tspan x="13.52" y="0">c</tspan></text><text class="f96abfdf-69da-4603-8289-dd51775d3c21" transform="translate(42.85 234.29)">pages</text><text class="f96abfdf-69da-4603-8289-dd51775d3c21" transform="translate(42.85 348.29)">components</text><text class="f96abfdf-69da-4603-8289-dd51775d3c21" transform="translate(354.39 88.29)">index.js</text><text class="f96abfdf-69da-4603-8289-dd51775d3c21" transform="translate(359.26 155.29)">App.js</text><rect class="e636bbd3-3d01-4158-8fd0-f3fd27453fc0" x="302.1" y="462" width="159" height="32"/><text class="f96abfdf-69da-4603-8289-dd51775d3c21" transform="translate(315.98 484.29)">but<tspan class="a1ad60db-b69b-4188-99e4-3bcfe599d46b" x="23.02" y="0">t</tspan><tspan x="28.09" y="0">on.component</tspan></text><rect class="edda4f45-09fd-4bc7-a93f-8cb13cda5629" x="199.1" y="394.81" width="159" height="32"/><text class="f96abfdf-69da-4603-8289-dd51775d3c21" transform="translate(212.45 415.48)">n<tspan class="bb475384-7cbd-4017-8810-0a79bf397509" x="8.83" y="0">a</tspan><tspan x="17.41" y="0">vba</tspan><tspan class="baa22fe0-1781-4e51-a165-3baf4f111fa3" x="42.84" y="0">r</tspan><tspan x="47.3" y="0">.component</tspan></text><rect class="a2db94c0-0e62-4165-b08e-0a67e1682efb" x="405.1" y="394.81" width="159" height="32"/><text class="f96abfdf-69da-4603-8289-dd51775d3c21" transform="translate(418.45 415.48)">foote<tspan class="baa22fe0-1781-4e51-a165-3baf4f111fa3" x="37.51" y="0">r</tspan><tspan x="41.96" y="0">.component</tspan></text><rect class="ff4bd4af-393b-4e97-925b-16d3b39cc259" x="110.85" y="219.81" width="119.92" height="32"/><rect class="a8a2ae67-878f-46a3-94a6-676fd131870f" x="251.38" y="219.81" width="119.92" height="32"/><rect class="b2b969ba-4adb-4582-bcf8-3e1d6b0d1eba" x="391.9" y="219.81" width="119.92" height="32"/><rect class="a54ecf6c-5fee-4ec3-9ebe-bc03a7c2c921" x="532.42" y="219.81" width="119.92" height="32"/><text class="f96abfdf-69da-4603-8289-dd51775d3c21" transform="translate(124.21 240.48)">home.page</text><text class="f96abfdf-69da-4603-8289-dd51775d3c21" transform="translate(274.21 240.48)">about.page</text><text class="f96abfdf-69da-4603-8289-dd51775d3c21" transform="translate(405.21 240.48)">contact.page</text><text class="f96abfdf-69da-4603-8289-dd51775d3c21" transform="translate(543.21 240.48)">er<tspan class="a1ad60db-b69b-4188-99e4-3bcfe599d46b" x="13.89" y="0">r</tspan><tspan x="19.15" y="0">or404.page</tspan></text><line class="afea3bd7-d1a8-41a3-a62b-f9c1a9eada6e" x1="382.5" y1="68" x2="382.5" y2="39.18"/><polygon class="a251f4d8-f00d-4827-a731-98045a336e83" points="387.49 40.63 382.5 32 377.51 40.63 387.49 40.63"/><line class="aa6159d6-20f7-4deb-b4a4-e859da8150ee" x1="382" y1="137" x2="382.4" y2="107.18"/><polygon class="b3f33667-9887-4509-8439-2e57cd172d6f" points="387.37 108.7 382.5 100 377.4 108.57 387.37 108.7"/><polyline class="e7075890-b720-47d5-9688-4a15bc0b59ac" points="257.5 394.5 257.5 276.5 171 276.5 171 258.68"/><polygon class="edda4f45-09fd-4bc7-a93f-8cb13cda5629" points="175.99 260.13 171 251.5 166.01 260.13 175.99 260.13"/><polyline class="f69936e6-1a33-402c-8e65-49accf6ca2be" points="171 220 171 188.9 358.5 188.9 358.5 175.18"/><polygon class="ff4bd4af-393b-4e97-925b-16d3b39cc259" points="363.49 176.63 358.5 168 353.51 176.63 363.49 176.63"/><polyline class="a6c03dbb-f1fc-4e76-9f7c-3c54f3590938" points="311 220 311 196.22 375.5 196.22 375.5 175.18"/><polygon class="a8a2ae67-878f-46a3-94a6-676fd131870f" points="380.49 176.63 375.5 168 370.51 176.63 380.49 176.63"/><polyline class="bed6aed4-ee6d-45d3-aa3f-32478ad1dafb" points="592.5 220 592.5 188.9 408.5 188.9 408.5 175.18"/><polygon class="a54ecf6c-5fee-4ec3-9ebe-bc03a7c2c921" points="413.49 176.63 408.5 168 403.51 176.63 413.49 176.63"/><polyline class="f045f9e4-f4cd-4071-91dc-b3f98c809262" points="458.5 220 458.5 196.22 393.5 196.22 393.5 175.18"/><polygon class="b2b969ba-4adb-4582-bcf8-3e1d6b0d1eba" points="398.49 176.63 393.5 168 388.51 176.63 398.49 176.63"/><polyline class="a9982558-851e-4459-a78a-f3eac04d387f" points="366.5 462 366.5 443.9 274 443.9 274 433.68"/><polygon class="e636bbd3-3d01-4158-8fd0-f3fd27453fc0" points="278.99 435.13 274 426.5 269.01 435.13 278.99 435.13"/><polyline class="a9982558-851e-4459-a78a-f3eac04d387f" points="376.5 462 376.5 443.9 481 443.9 481 433.68"/><polygon class="e636bbd3-3d01-4158-8fd0-f3fd27453fc0" points="485.99 435.13 481 426.5 476.01 435.13 485.99 435.13"/><polyline class="e7075890-b720-47d5-9688-4a15bc0b59ac" points="273.5 394.5 273.5 276.5 458.5 276.5 458.5 258.68"/><polygon class="edda4f45-09fd-4bc7-a93f-8cb13cda5629" points="463.49 260.13 458.5 251.5 453.51 260.13 463.49 260.13"/><polyline class="e7075890-b720-47d5-9688-4a15bc0b59ac" points="264.5 395 264.5 268.41 314.5 268.41 314.5 258.68"/><polygon class="edda4f45-09fd-4bc7-a93f-8cb13cda5629" points="319.49 260.13 314.5 251.5 309.51 260.13 319.49 260.13"/><polyline class="e7075890-b720-47d5-9688-4a15bc0b59ac" points="285.5 394.5 285.5 283.89 592.5 283.89 592.5 259.18"/><polygon class="edda4f45-09fd-4bc7-a93f-8cb13cda5629" points="597.49 260.63 592.5 252 587.51 260.63 597.49 260.63"/><path class="fac4df14-a97b-4d78-8a7e-78bc3afe92de" d="M662.56,436.67V358.55H744c.32,0,0-2.7,0-3.55,0-1.33-.07-2.36,0-3.68.09-3.28.18-6.56.23-9.83,0-2.48.07-5,0-7.43,0-.71.17-3-.52-3.54C738,329,740,321,743.17,321a1.73,1.73,0,0,0,.57-.38,1.32,1.32,0,0,0,.2-.68c.41-6.16.26-12.46.14-18.71" transform="translate(-170.5 -42)"/><polygon class="a2db94c0-0e62-4165-b08e-0a67e1682efb" points="578.61 260.56 573.5 252 568.64 260.7 578.61 260.56"/><path class="fac4df14-a97b-4d78-8a7e-78bc3afe92de" d="M646.3,436.67V346H500c-.35-.11-.32-14.9.45-16a2.32,2.32,0,0,1,1.22-.8c7.33-2.2,8.33-14.2,0-15a3.21,3.21,0,0,1-1.25-.16c-.89-.46-.71-1.59-.61-2.4.14-1.16.15-7.82.15-10.44" transform="translate(-170.5 -42)"/><polygon class="a2db94c0-0e62-4165-b08e-0a67e1682efb" points="334.48 260.64 329.5 252 324.51 260.63 334.48 260.64"/><path class="fac4df14-a97b-4d78-8a7e-78bc3afe92de" d="M655.45,437l0-9.72q0-12.27-.08-24.54l-.1-32.45-.11-33.41c0-1.82.77-5.4-1.42-5.58-3.71-.3-6.71-7.3-.49-9.78,1.89-.76,1.73-.81,1.78-2.52.07-2.43,0-14.75,0-17.83" transform="translate(-170.5 -42)"/><polygon class="a2db94c0-0e62-4165-b08e-0a67e1682efb" points="489.51 260.62 484.5 252 479.54 260.65 489.51 260.62"/><path class="fac4df14-a97b-4d78-8a7e-78bc3afe92de" d="M634.1,436.67V363.44H555.69c-30.05,0-60.13-.15-90.16-.12a2.56,2.56,0,0,0-1.43.28,2.75,2.75,0,0,0-1,1.76C460,379,433,389,417.56,366c-2.2-3.27-8-2.56-11.48-2.56H322V301.17" transform="translate(-170.5 -42)"/><polygon class="a2db94c0-0e62-4165-b08e-0a67e1682efb" points="156.49 260.63 151.5 252 146.51 260.63 156.49 260.63"/><line class="a5a2e262-a0db-44ea-9827-fe630260464a" y1="54.5" x2="3" y2="54.5"/><line class="a70b8bc1-3d9e-439d-ad9c-709826896e58" x1="8.97" y1="54.5" x2="615.01" y2="54.5"/><line class="a5a2e262-a0db-44ea-9827-fe630260464a" x1="618" y1="54.5" x2="621" y2="54.5"/><line class="a5a2e262-a0db-44ea-9827-fe630260464a" x1="0.5" y1="207.5" x2="3.5" y2="207.5"/><line class="a70b8bc1-3d9e-439d-ad9c-709826896e58" x1="9.47" y1="207.5" x2="615.51" y2="207.5"/><line class="a5a2e262-a0db-44ea-9827-fe630260464a" x1="618.5" y1="207.5" x2="621.5" y2="207.5"/><line class="a5a2e262-a0db-44ea-9827-fe630260464a" x1="0.5" y1="294.5" x2="3.5" y2="294.5"/><line class="a70b8bc1-3d9e-439d-ad9c-709826896e58" x1="9.47" y1="294.5" x2="615.51" y2="294.5"/><line class="a5a2e262-a0db-44ea-9827-fe630260464a" x1="618.5" y1="294.5" x2="621.5" y2="294.5"/></svg>