<svg id="af863f69-c13f-402a-bb9b-2320b8298391" data-name="Capa 1" xmlns="http://www.w3.org/2000/svg" viewBox="0 0 1080 589"><defs><style>.fb75a08a-fddf-433c-820f-0aa48499a883{fill:#fff;}.a5eadc30-9d1f-4a38-8088-efffe0ac6990{fill:#0054ff;}.abd57dad-ad93-41d4-9213-3f1d3f3ff598{fill:#00a6ff;}.e583a0ab-89e9-4091-9b53-4cf6b379db77{fill:#00e1ff;}.b7cb1189-20a0-4186-8ad0-27ff84ada781{font-size:16px;font-family:Roboto-Regular, Roboto;}.e26a8ae5-8b9e-4d68-b3c2-4e674f83b1a8{letter-spacing:-0.01em;}.fe9e79c9-7456-46ec-a654-d23788f1eb23{fill:#7e2eff;}.ec168585-6b92-4bb6-a29d-ca9d3f28c643{letter-spacing:-0.01em;}.af4c42d0-c128-41aa-912f-a724b54ca406{fill:#00c8d0;}.e618fece-d03e-4236-95c4-6a31a13caf19{letter-spacing:-0.01em;}.a7b8cf3a-af9c-4bb0-86c4-2541c32fa9a4{letter-spacing:-0.06em;}.fe981386-2571-4f56-a0d2-c644e12189fc{fill:#ff0089;}.b77c90e1-e69e-4d7f-aaf9-99d94ebe5345{fill:#f40;}.a395f688-deea-40c4-8484-d1baad25a6ae{fill:#ff7300;}.abb6e284-2bd9-4d66-b6f2-fe65a87f47b0{fill:#ff9600;}.bd627398-7a0f-4ceb-a478-044643ab4fbc{fill:#ffc600;}.a0d9f978-9859-4840-8260-8a86cbeac78c,.a3a629cb-d911-45c0-8c86-732f63b303d5,.a97c637e-34da-46e9-af0e-55f84853320b,.acba8810-e4dc-4287-9594-9f0c818d266f,.b059c0bf-1b12-499e-8c42-11b42271c1a5,.b4e07679-2c25-43d2-8a0e-e5e81db16e18,.bb578e0b-f311-49bd-a83c-2478660bd263,.bc9e256d-478b-40ef-9aa9-564ef12ef071,.e7e6949f-e808-41fd-8025-eb60a7179aca,.e9a5e225-2887-451e-816e-e834d4547a9f,.f9380196-cc79-4a80-ae8c-c6cd29f2a06b{fill:none;stroke-miterlimit:10;}.e9a5e225-2887-451e-816e-e834d4547a9f{stroke:#00a6ff;}.a0d9f978-9859-4840-8260-8a86cbeac78c,.a3a629cb-d911-45c0-8c86-732f63b303d5,.a97c637e-34da-46e9-af0e-55f84853320b,.acba8810-e4dc-4287-9594-9f0c818d266f,.b4e07679-2c25-43d2-8a0e-e5e81db16e18,.bb578e0b-f311-49bd-a83c-2478660bd263,.e7e6949f-e808-41fd-8025-eb60a7179aca,.e9a5e225-2887-451e-816e-e834d4547a9f,.f9380196-cc79-4a80-ae8c-c6cd29f2a06b{stroke-width:2px;}.a0d9f978-9859-4840-8260-8a86cbeac78c{stroke:#0054ff;}.e7e6949f-e808-41fd-8025-eb60a7179aca{stroke:#00c8d0;}.acba8810-e4dc-4287-9594-9f0c818d266f{stroke:#f40;}.bb578e0b-f311-49bd-a83c-2478660bd263{stroke:#ff7300;}.f9380196-cc79-4a80-ae8c-c6cd29f2a06b{stroke:#ffc600;}.a3a629cb-d911-45c0-8c86-732f63b303d5{stroke:#ff9600;}.a97c637e-34da-46e9-af0e-55f84853320b{stroke:#7e2eff;}.b4e07679-2c25-43d2-8a0e-e5e81db16e18{stroke:#ff0089;}.b059c0bf-1b12-499e-8c42-11b42271c1a5,.bc9e256d-478b-40ef-9aa9-564ef12ef071{stroke:#999;}.b059c0bf-1b12-499e-8c42-11b42271c1a5{stroke-dasharray:5.97 5.97;}</style></defs><title>reactjs2</title><rect class="fb75a08a-fddf-433c-820f-0aa48499a883" width="1080" height="589"/><rect class="a5eadc30-9d1f-4a38-8088-efffe0ac6990" x="489.1" y="178.5" width="127" height="32"/><rect class="abd57dad-ad93-41d4-9213-3f1d3f3ff598" x="489.1" y="110.5" width="127" height="32"/><rect class="e583a0ab-89e9-4091-9b53-4cf6b379db77" x="489.1" y="42.5" width="127" height="32"/><text class="b7cb1189-20a0-4186-8ad0-27ff84ada781" transform="translate(515.45 62.79)">index.html</text><text class="b7cb1189-20a0-4186-8ad0-27ff84ada781" transform="translate(213.85 62.79)">public</text><text class="b7cb1189-20a0-4186-8ad0-27ff84ada781" transform="translate(213.85 126.79)">s<tspan class="e26a8ae5-8b9e-4d68-b3c2-4e674f83b1a8" x="8.25" y="0">r</tspan><tspan x="13.52" y="0">c</tspan></text><text class="b7cb1189-20a0-4186-8ad0-27ff84ada781" transform="translate(213.85 276.79)">pages</text><text class="b7cb1189-20a0-4186-8ad0-27ff84ada781" transform="translate(213.85 390.79)">components</text><text class="b7cb1189-20a0-4186-8ad0-27ff84ada781" transform="translate(525.39 130.79)">index.js</text><text class="b7cb1189-20a0-4186-8ad0-27ff84ada781" transform="translate(530.26 197.79)">App.js</text><rect class="fe9e79c9-7456-46ec-a654-d23788f1eb23" x="473.1" y="504.5" width="159" height="32"/><text class="b7cb1189-20a0-4186-8ad0-27ff84ada781" transform="translate(486.98 526.79)">but<tspan class="ec168585-6b92-4bb6-a29d-ca9d3f28c643" x="23.02" y="0">t</tspan><tspan x="28.09" y="0">on.component</tspan></text><rect class="af4c42d0-c128-41aa-912f-a724b54ca406" x="370.1" y="437.31" width="159" height="32"/><text class="b7cb1189-20a0-4186-8ad0-27ff84ada781" transform="translate(383.45 457.98)">n<tspan class="e618fece-d03e-4236-95c4-6a31a13caf19" x="8.83" y="0">a</tspan><tspan x="17.41" y="0">vba</tspan><tspan class="a7b8cf3a-af9c-4bb0-86c4-2541c32fa9a4" x="42.84" y="0">r</tspan><tspan x="47.3" y="0">.component</tspan></text><rect class="fe981386-2571-4f56-a0d2-c644e12189fc" x="576.1" y="437.31" width="159" height="32"/><text class="b7cb1189-20a0-4186-8ad0-27ff84ada781" transform="translate(589.45 457.98)">foote<tspan class="a7b8cf3a-af9c-4bb0-86c4-2541c32fa9a4" x="37.51" y="0">r</tspan><tspan x="41.96" y="0">.component</tspan></text><rect class="b77c90e1-e69e-4d7f-aaf9-99d94ebe5345" x="281.85" y="262.31" width="119.92" height="32"/><rect class="a395f688-deea-40c4-8484-d1baad25a6ae" x="422.38" y="262.31" width="119.92" height="32"/><rect class="abb6e284-2bd9-4d66-b6f2-fe65a87f47b0" x="562.9" y="262.31" width="119.92" height="32"/><rect class="bd627398-7a0f-4ceb-a478-044643ab4fbc" x="703.42" y="262.31" width="119.92" height="32"/><text class="b7cb1189-20a0-4186-8ad0-27ff84ada781" transform="translate(295.21 282.98)">home.page</text><text class="b7cb1189-20a0-4186-8ad0-27ff84ada781" transform="translate(445.21 282.98)">about.page</text><text class="b7cb1189-20a0-4186-8ad0-27ff84ada781" transform="translate(576.21 282.98)">contact.page</text><text class="b7cb1189-20a0-4186-8ad0-27ff84ada781" transform="translate(714.21 282.98)">er<tspan class="ec168585-6b92-4bb6-a29d-ca9d3f28c643" x="13.89" y="0">r</tspan><tspan x="19.15" y="0">or404.page</tspan></text><line class="e9a5e225-2887-451e-816e-e834d4547a9f" x1="553.5" y1="110.5" x2="553.5" y2="81.68"/><polygon class="abd57dad-ad93-41d4-9213-3f1d3f3ff598" points="558.49 83.14 553.5 74.5 548.51 83.14 558.49 83.14"/><line class="a0d9f978-9859-4840-8260-8a86cbeac78c" x1="553" y1="179.5" x2="553.4" y2="149.68"/><polygon class="a5eadc30-9d1f-4a38-8088-efffe0ac6990" points="558.37 151.2 553.5 142.5 548.4 151.07 558.37 151.2"/><polyline class="e7e6949f-e808-41fd-8025-eb60a7179aca" points="428.5 437 428.5 319 342 319 342 301.18"/><polygon class="af4c42d0-c128-41aa-912f-a724b54ca406" points="346.99 302.63 342 294 337.01 302.63 346.99 302.63"/><polyline class="acba8810-e4dc-4287-9594-9f0c818d266f" points="342 262.5 342 231.4 529.5 231.4 529.5 217.68"/><polygon class="b77c90e1-e69e-4d7f-aaf9-99d94ebe5345" points="534.49 219.13 529.5 210.5 524.51 219.13 534.49 219.13"/><polyline class="bb578e0b-f311-49bd-a83c-2478660bd263" points="482 262.5 482 238.72 546.5 238.72 546.5 217.68"/><polygon class="a395f688-deea-40c4-8484-d1baad25a6ae" points="551.49 219.13 546.5 210.5 541.51 219.13 551.49 219.13"/><polyline class="f9380196-cc79-4a80-ae8c-c6cd29f2a06b" points="763.5 262.5 763.5 231.4 579.5 231.4 579.5 217.68"/><polygon class="bd627398-7a0f-4ceb-a478-044643ab4fbc" points="584.49 219.13 579.5 210.5 574.51 219.13 584.49 219.13"/><polyline class="a3a629cb-d911-45c0-8c86-732f63b303d5" points="629.5 262.5 629.5 238.72 564.5 238.72 564.5 217.68"/><polygon class="abb6e284-2bd9-4d66-b6f2-fe65a87f47b0" points="569.49 219.13 564.5 210.5 559.51 219.13 569.49 219.13"/><polyline class="a97c637e-34da-46e9-af0e-55f84853320b" points="537.5 504.5 537.5 486.4 445 486.4 445 476.18"/><polygon class="fe9e79c9-7456-46ec-a654-d23788f1eb23" points="449.99 477.63 445 469 440.01 477.63 449.99 477.63"/><polyline class="a97c637e-34da-46e9-af0e-55f84853320b" points="547.5 504.5 547.5 486.4 652 486.4 652 476.18"/><polygon class="fe9e79c9-7456-46ec-a654-d23788f1eb23" points="656.99 477.63 652 469 647.01 477.63 656.99 477.63"/><polyline class="e7e6949f-e808-41fd-8025-eb60a7179aca" points="444.5 437 444.5 319 629.5 319 629.5 301.18"/><polygon class="af4c42d0-c128-41aa-912f-a724b54ca406" points="634.49 302.63 629.5 294 624.51 302.63 634.49 302.63"/><polyline class="e7e6949f-e808-41fd-8025-eb60a7179aca" points="435.5 437.5 435.5 310.91 485.5 310.91 485.5 301.18"/><polygon class="af4c42d0-c128-41aa-912f-a724b54ca406" points="490.49 302.63 485.5 294 480.51 302.63 490.49 302.63"/><polyline class="e7e6949f-e808-41fd-8025-eb60a7179aca" points="456.5 437 456.5 326.39 763.5 326.39 763.5 301.68"/><polygon class="af4c42d0-c128-41aa-912f-a724b54ca406" points="768.49 303.13 763.5 294.5 758.51 303.13 768.49 303.13"/><path class="b4e07679-2c25-43d2-8a0e-e5e81db16e18" d="M662.56,436.67V358.55H744c.32,0,0-2.7,0-3.55,0-1.33-.07-2.36,0-3.68.09-3.28.18-6.56.23-9.83,0-2.48.07-5,0-7.43,0-.71.17-3-.52-3.54C738,329,740,321,743.17,321a1.73,1.73,0,0,0,.57-.38,1.32,1.32,0,0,0,.2-.68c.41-6.16.26-12.46.14-18.71" transform="translate(0.5 0.5)"/><polygon class="fe981386-2571-4f56-a0d2-c644e12189fc" points="749.61 303.06 744.5 294.5 739.64 303.2 749.61 303.06"/><path class="b4e07679-2c25-43d2-8a0e-e5e81db16e18" d="M646.3,436.67V346H500c-.35-.11-.32-14.9.45-16a2.32,2.32,0,0,1,1.22-.8c7.33-2.2,8.33-14.2,0-15a3.21,3.21,0,0,1-1.25-.16c-.89-.46-.71-1.59-.61-2.4.14-1.16.15-7.82.15-10.44" transform="translate(0.5 0.5)"/><polygon class="fe981386-2571-4f56-a0d2-c644e12189fc" points="505.48 303.14 500.5 294.5 495.51 303.13 505.48 303.14"/><path class="b4e07679-2c25-43d2-8a0e-e5e81db16e18" d="M655.45,437l0-9.72q0-12.27-.08-24.54l-.1-32.45-.11-33.41c0-1.82.77-5.4-1.42-5.58-3.71-.3-6.71-7.3-.49-9.78,1.89-.76,1.73-.81,1.78-2.52.07-2.43,0-14.75,0-17.83" transform="translate(0.5 0.5)"/><polygon class="fe981386-2571-4f56-a0d2-c644e12189fc" points="660.51 303.12 655.5 294.5 650.53 303.15 660.51 303.12"/><path class="b4e07679-2c25-43d2-8a0e-e5e81db16e18" d="M634.1,436.67V363.44H555.69c-30.05,0-60.13-.15-90.16-.12a2.56,2.56,0,0,0-1.43.28,2.75,2.75,0,0,0-1,1.76C460,379,433,389,417.56,366c-2.2-3.27-8-2.56-11.48-2.56H322V301.17" transform="translate(0.5 0.5)"/><polygon class="fe981386-2571-4f56-a0d2-c644e12189fc" points="327.49 303.13 322.5 294.5 317.51 303.13 327.49 303.13"/><line class="bc9e256d-478b-40ef-9aa9-564ef12ef071" x1="171" y1="97" x2="174" y2="97"/><line class="b059c0bf-1b12-499e-8c42-11b42271c1a5" x1="179.97" y1="97" x2="786.01" y2="97"/><line class="bc9e256d-478b-40ef-9aa9-564ef12ef071" x1="789" y1="97" x2="792" y2="97"/><line class="bc9e256d-478b-40ef-9aa9-564ef12ef071" x1="171.5" y1="250" x2="174.5" y2="250"/><line class="b059c0bf-1b12-499e-8c42-11b42271c1a5" x1="180.47" y1="250" x2="786.51" y2="250"/><line class="bc9e256d-478b-40ef-9aa9-564ef12ef071" x1="789.5" y1="250" x2="792.5" y2="250"/><line class="bc9e256d-478b-40ef-9aa9-564ef12ef071" x1="171.5" y1="337" x2="174.5" y2="337"/><line class="b059c0bf-1b12-499e-8c42-11b42271c1a5" x1="180.47" y1="337" x2="786.51" y2="337"/><line class="bc9e256d-478b-40ef-9aa9-564ef12ef071" x1="789.5" y1="337" x2="792.5" y2="337"/></svg>