<svg id="a09eed80-0653-4bfd-9929-20e76c5d5615" data-name="Capa 1" xmlns="http://www.w3.org/2000/svg" viewBox="0 0 1080 589"><defs><style>.a211cfa5-9055-4991-9dd4-9d77456ab8d1,.a285da2e-266b-4eab-be01-41c12cf72e15,.a4db7050-51cb-41e6-8bef-5a45bfa5345f,.a5731808-cc77-47bc-a902-97efd3cceffa,.a82855dc-1afb-4b35-ad0e-dd438fbe90c3,.a9b69414-c806-410f-8c6f-debe5abdc631,.ac5e499d-9667-4743-8d19-cf565345118f,.b5532151-ab17-4129-aa81-f285f00db63d,.b73cf7bb-3ba6-4394-94e2-ec673d6c237f,.bd561216-f666-425c-8a32-9293e79e05c1,.eca0a8f8-528d-4c9f-a71d-a9d56340626e,.f24a5a4e-fd11-4876-8dd9-f7fd7261b34f{fill:none;}.ad2bd722-8050-40d7-8bf3-4b5999d9c755{fill:#0054ff;}.e20b6025-1d0c-4805-b39f-e0c96222d21a{fill:#00a6ff;}.b0bb0a91-3cbf-4e17-9c0c-004ec2f4e2f9{fill:#00e1ff;}.a317f22c-112e-45eb-9738-acbb2328aa2e{font-size:16px;font-family:Roboto-Regular, Roboto;}.ee151373-5e73-4b36-90a0-cfd3d91d8d99{letter-spacing:-0.01em;}.bb509009-9479-433f-a1f3-619d4b09ff9b{fill:#7e2eff;}.b6baa695-ae40-4d0d-a2c0-96b94aa180e1{letter-spacing:-0.01em;}.bcf5ecd7-b19c-488f-86cf-649af71ab49e{fill:#00c8d0;}.aa793b45-8b5a-4b7c-9ead-6ebf94b4977c{letter-spacing:-0.01em;}.e7ff7b41-47b9-4149-bdd1-439688758d6b{letter-spacing:-0.06em;}.b5ecc9b6-ef09-475f-81f0-210f0369990d{fill:#ff0089;}.a455f2a5-9954-4a20-bba1-36f0c764b8d3{fill:#f40;}.bb8cb306-9ec9-4c5d-bc6a-780716b47be0{fill:#ff7300;}.ade64e93-41c8-4a97-ba43-ef5c7dae0f53{fill:#ff9600;}.ae5c142e-ae32-416f-95af-efd9c39f67a3{fill:#ffc600;}.a285da2e-266b-4eab-be01-41c12cf72e15{stroke:#00a6ff;}.a211cfa5-9055-4991-9dd4-9d77456ab8d1,.a285da2e-266b-4eab-be01-41c12cf72e15,.a4db7050-51cb-41e6-8bef-5a45bfa5345f,.a5731808-cc77-47bc-a902-97efd3cceffa,.a82855dc-1afb-4b35-ad0e-dd438fbe90c3,.a9b69414-c806-410f-8c6f-debe5abdc631,.b5532151-ab17-4129-aa81-f285f00db63d,.b73cf7bb-3ba6-4394-94e2-ec673d6c237f,.bd561216-f666-425c-8a32-9293e79e05c1,.eca0a8f8-528d-4c9f-a71d-a9d56340626e,.f24a5a4e-fd11-4876-8dd9-f7fd7261b34f{stroke-miterlimit:10;}.a211cfa5-9055-4991-9dd4-9d77456ab8d1,.a285da2e-266b-4eab-be01-41c12cf72e15,.a4db7050-51cb-41e6-8bef-5a45bfa5345f,.a5731808-cc77-47bc-a902-97efd3cceffa,.a82855dc-1afb-4b35-ad0e-dd438fbe90c3,.a9b69414-c806-410f-8c6f-debe5abdc631,.b5532151-ab17-4129-aa81-f285f00db63d,.bd561216-f666-425c-8a32-9293e79e05c1,.eca0a8f8-528d-4c9f-a71d-a9d56340626e{stroke-width:2px;}.bd561216-f666-425c-8a32-9293e79e05c1{stroke:#0054ff;}.a82855dc-1afb-4b35-ad0e-dd438fbe90c3{stroke:#00c8d0;}.eca0a8f8-528d-4c9f-a71d-a9d56340626e{stroke:#f40;}.a4db7050-51cb-41e6-8bef-5a45bfa5345f{stroke:#ff7300;}.a211cfa5-9055-4991-9dd4-9d77456ab8d1{stroke:#ffc600;}.a5731808-cc77-47bc-a902-97efd3cceffa{stroke:#ff9600;}.a9b69414-c806-410f-8c6f-debe5abdc631{stroke:#7e2eff;}.b5532151-ab17-4129-aa81-f285f00db63d{stroke:#ff0089;}.b73cf7bb-3ba6-4394-94e2-ec673d6c237f,.f24a5a4e-fd11-4876-8dd9-f7fd7261b34f{stroke:#999;}.b73cf7bb-3ba6-4394-94e2-ec673d6c237f{stroke-dasharray:5.97 5.97;}</style></defs><title>reactjs2</title><rect class="ac5e499d-9667-4743-8d19-cf565345118f" width="1080" height="589"/><rect class="ad2bd722-8050-40d7-8bf3-4b5999d9c755" x="489.1" y="178.5" width="127" height="32"/><rect class="e20b6025-1d0c-4805-b39f-e0c96222d21a" x="489.1" y="110.5" width="127" height="32"/><rect class="b0bb0a91-3cbf-4e17-9c0c-004ec2f4e2f9" x="489.1" y="42.5" width="127" height="32"/><text class="a317f22c-112e-45eb-9738-acbb2328aa2e" transform="translate(515.45 62.79)">index.html</text><text class="a317f22c-112e-45eb-9738-acbb2328aa2e" transform="translate(213.85 62.79)">public</text><text class="a317f22c-112e-45eb-9738-acbb2328aa2e" transform="translate(213.85 126.79)">s<tspan class="ee151373-5e73-4b36-90a0-cfd3d91d8d99" x="8.25" y="0">r</tspan><tspan x="13.52" y="0">c</tspan></text><text class="a317f22c-112e-45eb-9738-acbb2328aa2e" transform="translate(213.85 276.79)">pages</text><text class="a317f22c-112e-45eb-9738-acbb2328aa2e" transform="translate(213.85 390.79)">components</text><text class="a317f22c-112e-45eb-9738-acbb2328aa2e" transform="translate(525.39 130.79)">index.js</text><text class="a317f22c-112e-45eb-9738-acbb2328aa2e" transform="translate(530.26 197.79)">App.js</text><rect class="bb509009-9479-433f-a1f3-619d4b09ff9b" x="473.1" y="504.5" width="159" height="32"/><text class="a317f22c-112e-45eb-9738-acbb2328aa2e" transform="translate(486.98 526.79)">but<tspan class="b6baa695-ae40-4d0d-a2c0-96b94aa180e1" x="23.02" y="0">t</tspan><tspan x="28.09" y="0">on.component</tspan></text><rect class="bcf5ecd7-b19c-488f-86cf-649af71ab49e" x="370.1" y="437.31" width="159" height="32"/><text class="a317f22c-112e-45eb-9738-acbb2328aa2e" transform="translate(383.45 457.98)">n<tspan class="aa793b45-8b5a-4b7c-9ead-6ebf94b4977c" x="8.83" y="0">a</tspan><tspan x="17.41" y="0">vba</tspan><tspan class="e7ff7b41-47b9-4149-bdd1-439688758d6b" x="42.84" y="0">r</tspan><tspan x="47.3" y="0">.component</tspan></text><rect class="b5ecc9b6-ef09-475f-81f0-210f0369990d" x="576.1" y="437.31" width="159" height="32"/><text class="a317f22c-112e-45eb-9738-acbb2328aa2e" transform="translate(589.45 457.98)">foote<tspan class="e7ff7b41-47b9-4149-bdd1-439688758d6b" x="37.51" y="0">r</tspan><tspan x="41.96" y="0">.component</tspan></text><rect class="a455f2a5-9954-4a20-bba1-36f0c764b8d3" x="281.85" y="262.31" width="119.92" height="32"/><rect class="bb8cb306-9ec9-4c5d-bc6a-780716b47be0" x="422.38" y="262.31" width="119.92" height="32"/><rect class="ade64e93-41c8-4a97-ba43-ef5c7dae0f53" x="562.9" y="262.31" width="119.92" height="32"/><rect class="ae5c142e-ae32-416f-95af-efd9c39f67a3" x="703.42" y="262.31" width="119.92" height="32"/><text class="a317f22c-112e-45eb-9738-acbb2328aa2e" transform="translate(295.21 282.98)">home.page</text><text class="a317f22c-112e-45eb-9738-acbb2328aa2e" transform="translate(445.21 282.98)">about.page</text><text class="a317f22c-112e-45eb-9738-acbb2328aa2e" transform="translate(576.21 282.98)">contact.page</text><text class="a317f22c-112e-45eb-9738-acbb2328aa2e" transform="translate(714.21 282.98)">er<tspan class="b6baa695-ae40-4d0d-a2c0-96b94aa180e1" x="13.89" y="0">r</tspan><tspan x="19.15" y="0">or404.page</tspan></text><line class="a285da2e-266b-4eab-be01-41c12cf72e15" x1="553.5" y1="110.5" x2="553.5" y2="81.68"/><polygon class="e20b6025-1d0c-4805-b39f-e0c96222d21a" points="558.49 83.14 553.5 74.5 548.51 83.14 558.49 83.14"/><line class="bd561216-f666-425c-8a32-9293e79e05c1" x1="553" y1="179.5" x2="553.4" y2="149.68"/><polygon class="ad2bd722-8050-40d7-8bf3-4b5999d9c755" points="558.37 151.2 553.5 142.5 548.4 151.07 558.37 151.2"/><polyline class="a82855dc-1afb-4b35-ad0e-dd438fbe90c3" points="428.5 437 428.5 319 342 319 342 301.18"/><polygon class="bcf5ecd7-b19c-488f-86cf-649af71ab49e" points="346.99 302.63 342 294 337.01 302.63 346.99 302.63"/><polyline class="eca0a8f8-528d-4c9f-a71d-a9d56340626e" points="342 262.5 342 231.4 529.5 231.4 529.5 217.68"/><polygon class="a455f2a5-9954-4a20-bba1-36f0c764b8d3" points="534.49 219.13 529.5 210.5 524.51 219.13 534.49 219.13"/><polyline class="a4db7050-51cb-41e6-8bef-5a45bfa5345f" points="482 262.5 482 238.72 546.5 238.72 546.5 217.68"/><polygon class="bb8cb306-9ec9-4c5d-bc6a-780716b47be0" points="551.49 219.13 546.5 210.5 541.51 219.13 551.49 219.13"/><polyline class="a211cfa5-9055-4991-9dd4-9d77456ab8d1" points="763.5 262.5 763.5 231.4 579.5 231.4 579.5 217.68"/><polygon class="ae5c142e-ae32-416f-95af-efd9c39f67a3" points="584.49 219.13 579.5 210.5 574.51 219.13 584.49 219.13"/><polyline class="a5731808-cc77-47bc-a902-97efd3cceffa" points="629.5 262.5 629.5 238.72 564.5 238.72 564.5 217.68"/><polygon class="ade64e93-41c8-4a97-ba43-ef5c7dae0f53" points="569.49 219.13 564.5 210.5 559.51 219.13 569.49 219.13"/><polyline class="a9b69414-c806-410f-8c6f-debe5abdc631" points="537.5 504.5 537.5 486.4 445 486.4 445 476.18"/><polygon class="bb509009-9479-433f-a1f3-619d4b09ff9b" points="449.99 477.63 445 469 440.01 477.63 449.99 477.63"/><polyline class="a9b69414-c806-410f-8c6f-debe5abdc631" points="547.5 504.5 547.5 486.4 652 486.4 652 476.18"/><polygon class="bb509009-9479-433f-a1f3-619d4b09ff9b" points="656.99 477.63 652 469 647.01 477.63 656.99 477.63"/><polyline class="a82855dc-1afb-4b35-ad0e-dd438fbe90c3" points="444.5 437 444.5 319 629.5 319 629.5 301.18"/><polygon class="bcf5ecd7-b19c-488f-86cf-649af71ab49e" points="634.49 302.63 629.5 294 624.51 302.63 634.49 302.63"/><polyline class="a82855dc-1afb-4b35-ad0e-dd438fbe90c3" points="435.5 437.5 435.5 310.91 485.5 310.91 485.5 301.18"/><polygon class="bcf5ecd7-b19c-488f-86cf-649af71ab49e" points="490.49 302.63 485.5 294 480.51 302.63 490.49 302.63"/><polyline class="a82855dc-1afb-4b35-ad0e-dd438fbe90c3" points="456.5 437 456.5 326.39 763.5 326.39 763.5 301.68"/><polygon class="bcf5ecd7-b19c-488f-86cf-649af71ab49e" points="768.49 303.13 763.5 294.5 758.51 303.13 768.49 303.13"/><path class="b5532151-ab17-4129-aa81-f285f00db63d" d="M662.56,436.67V358.55H744c.32,0,0-2.7,0-3.55,0-1.33-.07-2.36,0-3.68.09-3.28.18-6.56.23-9.83,0-2.48.07-5,0-7.43,0-.71.17-3-.52-3.54C738,329,740,321,743.17,321a1.73,1.73,0,0,0,.57-.38,1.32,1.32,0,0,0,.2-.68c.41-6.16.26-12.46.14-18.71" transform="translate(0.5 0.5)"/><polygon class="b5ecc9b6-ef09-475f-81f0-210f0369990d" points="749.61 303.06 744.5 294.5 739.64 303.2 749.61 303.06"/><path class="b5532151-ab17-4129-aa81-f285f00db63d" d="M646.3,436.67V346H500c-.35-.11-.32-14.9.45-16a2.32,2.32,0,0,1,1.22-.8c7.33-2.2,8.33-14.2,0-15a3.21,3.21,0,0,1-1.25-.16c-.89-.46-.71-1.59-.61-2.4.14-1.16.15-7.82.15-10.44" transform="translate(0.5 0.5)"/><polygon class="b5ecc9b6-ef09-475f-81f0-210f0369990d" points="505.48 303.14 500.5 294.5 495.51 303.13 505.48 303.14"/><path class="b5532151-ab17-4129-aa81-f285f00db63d" d="M655.45,437l0-9.72q0-12.27-.08-24.54l-.1-32.45-.11-33.41c0-1.82.77-5.4-1.42-5.58-3.71-.3-6.71-7.3-.49-9.78,1.89-.76,1.73-.81,1.78-2.52.07-2.43,0-14.75,0-17.83" transform="translate(0.5 0.5)"/><polygon class="b5ecc9b6-ef09-475f-81f0-210f0369990d" points="660.51 303.12 655.5 294.5 650.53 303.15 660.51 303.12"/><path class="b5532151-ab17-4129-aa81-f285f00db63d" d="M634.1,436.67V363.44H555.69c-30.05,0-60.13-.15-90.16-.12a2.56,2.56,0,0,0-1.43.28,2.75,2.75,0,0,0-1,1.76C460,379,433,389,417.56,366c-2.2-3.27-8-2.56-11.48-2.56H322V301.17" transform="translate(0.5 0.5)"/><polygon class="b5ecc9b6-ef09-475f-81f0-210f0369990d" points="327.49 303.13 322.5 294.5 317.51 303.13 327.49 303.13"/><line class="f24a5a4e-fd11-4876-8dd9-f7fd7261b34f" x1="171" y1="97" x2="174" y2="97"/><line class="b73cf7bb-3ba6-4394-94e2-ec673d6c237f" x1="179.97" y1="97" x2="786.01" y2="97"/><line class="f24a5a4e-fd11-4876-8dd9-f7fd7261b34f" x1="789" y1="97" x2="792" y2="97"/><line class="f24a5a4e-fd11-4876-8dd9-f7fd7261b34f" x1="171.5" y1="250" x2="174.5" y2="250"/><line class="b73cf7bb-3ba6-4394-94e2-ec673d6c237f" x1="180.47" y1="250" x2="786.51" y2="250"/><line class="f24a5a4e-fd11-4876-8dd9-f7fd7261b34f" x1="789.5" y1="250" x2="792.5" y2="250"/><line class="f24a5a4e-fd11-4876-8dd9-f7fd7261b34f" x1="171.5" y1="337" x2="174.5" y2="337"/><line class="b73cf7bb-3ba6-4394-94e2-ec673d6c237f" x1="180.47" y1="337" x2="786.51" y2="337"/><line class="f24a5a4e-fd11-4876-8dd9-f7fd7261b34f" x1="789.5" y1="337" x2="792.5" y2="337"/></svg>